/* XPM */
static char * D:\My Games\Snake\Snake\body_xpm[] = {
"20 20 47 1",
" 	c #00FF00",
".	c #FFF0F4",
"+	c #FFC5D3",
"@	c #FF99B3",
"#	c #FF7D9E",
"$	c #FFD3DE",
"%	c #FFA8BE",
"&	c #FF8BA8",
"*	c #FF81A1",
"=	c #0041FF",
"-	c #FF7E9F",
";	c #FFE2E9",
">	c #FFB6C9",
",	c #FF97B2",
"'	c #FF84A3",
")	c #FFB1C5",
"!	c #FF9EB6",
"~	c #FF89A7",
"{	c #FF94AF",
"]	c #FF7F9F",
"^	c #FF85A4",
"/	c #FF82A2",
"(	c #FF8DAA",
"_	c #FFAABF",
":	c #FF7E9E",
"<	c #FFC4D3",
"[	c #FFB4C6",
"}	c #FF9DB5",
"|	c #FFDBE4",
"1	c #FFCBD8",
"2	c #FFB2C5",
"3	c #FF9AB3",
"4	c #FF8AA7",
"5	c #FFE0E7",
"6	c #FFCAD7",
"7	c #FFB0C3",
"8	c #FF99B2",
"9	c #FF89A6",
"0	c #FF80A0",
"a	c #FFDFE6",
"b	c #FFC6D4",
"c	c #FF93AE",
"d	c #FF82A1",
"e	c #FF90AC",
"f	c #FFD4DF",
"g	c #FFB6C8",
"h	c #FF87A5",
"   .+@########@+.   ",
"  .$%&#######*&%$.  ",
" .$%&##===###-#&%$. ",
".$%&##=====#####&%$.",
";>,'-#=====######&>;",
")!~-###===#####==#@>",
"{&*###########====&@",
"'*-==#########====##",
"##====########====##",
"##====###==####==###",
"##====##====########",
"]-#==###====########",
"^/]######==####==-*'",
"{(']##########====&{",
"_!(/:##==#####====!>",
"<[}&*:====#####==&>;",
"|1234*====####-#&%$.",
" 567890==####]^&%$. ",
"  ab_c'-#####de%$.  ",
"   fg3h]#####^@+.   "};
