/* XPM */
static char * D:\My Games\Snake\Snake\bomb_xpm[] = {
"20 20 31 1",
" 	c #00FF00",
".	c #3FFF3F",
"+	c #AAFFAA",
"@	c #5AFF5A",
"#	c #0E0E0E",
"$	c #020202",
"%	c #BFBFBF",
"&	c #6EFF6E",
"*	c #000000",
"=	c #20FF20",
"-	c #898989",
";	c #C8C8C8",
">	c #686868",
",	c #282828",
"'	c #2A2A2A",
")	c #C8FFC8",
"!	c #848484",
"~	c #E7FFE7",
"{	c #484848",
"]	c #B1B1B1",
"^	c #52FF52",
"/	c #2D2D2D",
"(	c #E1FFE1",
"_	c #90FF90",
":	c #060606",
"<	c #222222",
"[	c #575757",
"}	c #C4FFC4",
"|	c #3F3F3F",
"1	c #323232",
"2	c #1BFF1B",
"      .+@#$#@+.     ",
"    %&   ***   &=   ",
"   -* ;>,***';   )  ",
"  !***********'  *! ",
" ~ ************{***]",
" ^ >************'**/",
"( ;***************  ",
"_ >**************'  ",
". ,**************:  ",
":*****************  ",
":*******************",
"<*******************",
"[ >**************>**",
"(  **************;  ",
" ^ >************>  ^",
" ~**************   ~",
"  !************** } ",
"   -* ;>***,>;***)  ",
"    =&  ***    |%   ",
"      .+1#$2@+.     "};
