/* XPM */
static char * D:\My Games\Snake\Snake\button_xpm[] = {
"20 20 2 1",
" 	c #000000",
".	c #FFFFFF",
"                    ",
"                    ",
"  ................  ",
"  ................  ",
"  ................  ",
"  ................  ",
"  ................  ",
"  ................  ",
"  ................  ",
"  ................  ",
"  ................  ",
"  ................  ",
"  ................  ",
"  ................  ",
"  ................  ",
"  ................  ",
"  ................  ",
"  ................  ",
"                    ",
"                    "};
