/* XPM */
static char * D:\My Games\Snake\Snake\button_mouse_over_xpm[] = {
"20 20 122 2",
"  	c #9E9FBA",
". 	c #8D92D4",
"+ 	c #CACAD9",
"@ 	c #A9ABC2",
"# 	c #ACADC4",
"$ 	c #AEAFC6",
"% 	c #B1B2C7",
"& 	c #B3B4C9",
"* 	c #B6B7CB",
"= 	c #B9BACD",
"- 	c #BBBDCF",
"; 	c #BDBED1",
"> 	c #BFC1D2",
", 	c #C3C4D4",
"' 	c #C5C6D6",
") 	c #C8C8D7",
"! 	c #CACBDA",
"~ 	c #AEB0C6",
"{ 	c #B3B5CA",
"] 	c #B6B8CB",
"^ 	c #BBBCCF",
"/ 	c #BEBFD1",
"( 	c #C0C1D3",
"_ 	c #C8C8D8",
": 	c #CCCEDB",
"< 	c #AFB0C6",
"[ 	c #B1B2C8",
"} 	c #B4B5C9",
"| 	c #B8BACD",
"1 	c #BEBFD0",
"2 	c #C1C1D3",
"3 	c #C2C4D4",
"4 	c #C8C9D8",
"5 	c #CBCCDA",
"6 	c #CCCEDC",
"7 	c #CFD1DE",
"8 	c #B1B3C8",
"9 	c #B4B5CA",
"0 	c #B7B8CB",
"a 	c #B9BACE",
"b 	c #C5C6D7",
"c 	c #CDCEDB",
"d 	c #D0D0DD",
"e 	c #D2D2E0",
"f 	c #B3B6CA",
"g 	c #B6B7CC",
"h 	c #CDCEDC",
"i 	c #D0D1DD",
"j 	c #D2D3DF",
"k 	c #D4D5E1",
"l 	c #B6B8CC",
"m 	c #B8BACE",
"n 	c #BCBDCF",
"o 	c #C1C2D3",
"p 	c #C3C4D5",
"q 	c #C6C6D6",
"r 	c #CBCBDA",
"s 	c #CFD0DE",
"t 	c #D2D3E0",
"u 	c #D5D5E1",
"v 	c #D7D8E3",
"w 	c #B9BBCE",
"x 	c #C1C2D2",
"y 	c #C6C7D6",
"z 	c #CDCFDC",
"A 	c #D3D3DF",
"B 	c #D5D6E1",
"C 	c #DADAE5",
"D 	c #BCBDD0",
"E 	c #BEC0D1",
"F 	c #C0C2D3",
"G 	c #C3C5D5",
"H 	c #C5C7D6",
"I 	c #C8CAD9",
"J 	c #CECEDB",
"K 	c #D3D4DF",
"L 	c #DADBE5",
"M 	c #DDDEE7",
"N 	c #C8CAD8",
"O 	c #D0D1DE",
"P 	c #D3D3E0",
"Q 	c #D8D8E3",
"R 	c #DADBE4",
"S 	c #DDDDE7",
"T 	c #DFE0E8",
"U 	c #CBCCDB",
"V 	c #D2D4E0",
"W 	c #DBDBE5",
"X 	c #DFE0E9",
"Y 	c #E1E2EA",
"Z 	c #C4C4D5",
"` 	c #C6C7D7",
" .	c #CBCDDA",
"..	c #D0D2DE",
"+.	c #D2D4DF",
"@.	c #D5D6E2",
"#.	c #DCDDE7",
"$.	c #E0DFE9",
"%.	c #E2E3EB",
"&.	c #E5E5EC",
"*.	c #C9CAD9",
"=.	c #D1D1DE",
"-.	c #D6D6E2",
";.	c #D8D9E4",
">.	c #E0E0E8",
",.	c #E5E5ED",
"'.	c #E7E8EE",
").	c #C9CAD8",
"!.	c #CECEDC",
"~.	c #D3D4E0",
"{.	c #D5D7E2",
"].	c #E0E1E9",
"^.	c #E2E2EA",
"/.	c #E4E5EC",
"(.	c #EAEAF0",
"_.	c #CECFDC",
":.	c #D8D8E4",
"<.	c #E8E8EE",
"[.	c #E9EBF0",
"}.	c #EDEDF1",
"|.	c #CCCCDA",
"1.	c #FCFCFC",
"  . . . . . . . . . . . . . . . . . . + ",
". . . . . . . . . . . . . . . . . . . . ",
". . . . . . . . . . . . . . . . . . . . ",
". . . @ # $ % & * = - ; > , ' ) ! . . . ",
". . . # ~ % { ] = ^ / ( , ' _ ! : . . . ",
". . . < [ } * | ^ 1 2 3 ' 4 5 6 7 . . . ",
". . . 8 9 0 a ^ / 2 , b 4 ! c d e . . . ",
". . . f g | - / ( , ' 4 5 h i j k . . . ",
". . . l m n / o p q 4 r c s t u v . . . ",
". . . w - / x p y 4 5 z i A B v C . . . ",
". . . D E F G H I 5 J d K u v L M . . . ",
". . . / o p y N 5 z O P B Q R S T . . . ",
". . . o G y I U h O V B v W S X Y . . . ",
". . . Z ` I  .z ..+.@.v W #.$.%.&.. . . ",
". . . ` *.5 h =.K -.;.L M >.%.,.'.. . . ",
". . . ).5 !.O ~.{.Q W S ].^./.'.(.. . . ",
". . . U _.=.~.-.:.W M X %.&.<.[.}.. . . ",
". . . . . . . . . . . . . . . . . . . . ",
". . . . . . . . . . . . . . . . . . . . ",
"|.. . . . . . . . . . . . . . . . . . 1."};
