/* XPM */
static char * D:\My Games\Snake\Snake\button_clicked_xpm[] = {
"20 20 125 2",
"  	c #0819EA",
". 	c #0918EA",
"+ 	c #0818EA",
"@ 	c #0B1EE9",
"# 	c #0E23E8",
"$ 	c #1229E8",
"% 	c #152FE7",
"& 	c #1835E7",
"* 	c #1B3BE6",
"= 	c #1E40E5",
"- 	c #2246E4",
"; 	c #254BE3",
"> 	c #2851E3",
", 	c #2B57E3",
"' 	c #0B1EEA",
") 	c #0F24E9",
"! 	c #1834E7",
"~ 	c #1C3AE6",
"{ 	c #2245E5",
"] 	c #254BE4",
"^ 	c #2851E4",
"/ 	c #2B56E3",
"( 	c #2F5DE2",
"_ 	c #1F40E5",
": 	c #264BE4",
"< 	c #2951E3",
"[ 	c #2C57E3",
"} 	c #2F5CE2",
"| 	c #3162E1",
"1 	c #0F24E8",
"2 	c #1129E8",
"3 	c #1935E6",
"4 	c #1B3AE6",
"5 	c #2245E4",
"6 	c #3262E1",
"7 	c #3568E0",
"8 	c #0919EA",
"9 	c #0E24E9",
"0 	c #152FE8",
"a 	c #2246E5",
"b 	c #2B57E2",
"c 	c #3568E1",
"d 	c #386DE0",
"e 	c #0C1EEA",
"f 	c #0E23E9",
"g 	c #1834E6",
"h 	c #1C3AE5",
"i 	c #1F40E6",
"j 	c #2951E4",
"k 	c #2C57E2",
"l 	c #3567E0",
"m 	c #386EE0",
"n 	c #3C73DF",
"o 	c #0C1EE9",
"p 	c #0F23E9",
"q 	c #1229E7",
"r 	c #1934E7",
"s 	c #2145E5",
"t 	c #2E5CE2",
"u 	c #3262E2",
"v 	c #3B73DF",
"w 	c #3F78DF",
"x 	c #396EE0",
"y 	c #3F79DE",
"z 	c #427FDD",
"A 	c #254CE4",
"B 	c #396DDF",
"C 	c #3E79DE",
"D 	c #417EDE",
"E 	c #4584DD",
"F 	c #2E5DE1",
"G 	c #3C73E0",
"H 	c #3E79DF",
"I 	c #427FDE",
"J 	c #488ADD",
"K 	c #2B56E2",
"L 	c #3F79DF",
"M 	c #427EDE",
"N 	c #4584DE",
"O 	c #4B8FDC",
"P 	c #386EDF",
"Q 	c #3E78DF",
"R 	c #488ADC",
"S 	c #4C8FDB",
"T 	c #4E95DB",
"U 	c #1C3BE6",
"V 	c #2E5DE2",
"W 	c #396DE0",
"X 	c #498ADD",
"Y 	c #4C8FDC",
"Z 	c #519BDA",
"` 	c #1E40E6",
" .	c #3F78DE",
"..	c #4B90DB",
"+.	c #529BDA",
"@.	c #55A1DA",
"#.	c #3162E2",
"$.	c #498ADC",
"%.	c #529BDB",
"&.	c #55A0D9",
"*.	c #59A6D9",
"=.	c #396EDF",
"-.	c #4C90DC",
";.	c #4F96DB",
">.	c #55A0DA",
",.	c #58A6D9",
"'.	c #5CACD8",
").	c #2146E5",
"!.	c #417FDE",
"~.	c #55A1D9",
"{.	c #5EB2D7",
"].	c #4B90DC",
"^.	c #4F95DB",
"/.	c #59A7D9",
"(.	c #5BACD9",
"_.	c #62B7D7",
":.	c #427EDD",
"<.	c #4585DD",
"[.	c #58A6DA",
"}.	c #5BACD8",
"|.	c #5EB1D8",
"1.	c #61B7D7",
"2.	c #62B8D7",
"3.	c #4989DC",
"4.	c #5FB2D8",
"  . + + + + + + + @ # $ % & * = - ; > , ",
".   + + + + + + ' ) $ % ! ~ = { ] ^ / ( ",
". +   +   + . @ ) $ % & ~ _ { : < [ } | ",
"+ + + + + . ' 1 2 % 3 4 _ 5 ] ^ , } 6 7 ",
"+ .   8 + ' 9 $ 0 & ~ _ a ] > b } 6 c d ",
"+ . . + e f $ % g h i a ] j k } 6 l m n ",
"+ .   o p q % r ~ _ s ] ^ [ t u 7 m v w ",
"  + e f $ % ! ~ = a ] > / t 6 c x n y z ",
". o ) $ % ! 4 i - A > b ( 6 7 B v C D E ",
"o f $ % ! * = a ] ^ b F 6 c d G H I E J ",
"p q % 3 4 _ { ] > K } u c d v L M N J O ",
"$ % ! ~ = { A < / t 6 c P n Q I E R S T ",
"% r U _ - ; < [ V 6 l W G H M E X Y T Z ",
"r ~ ` 5 ] > [ t u c W v  .M E R ..T +.@.",
"~ ` 5 ] > [ } #.c m G y M E $.Y T %.&.*.",
"_ - A < b } u 7 =.G H M E $.-.;.%.>.,.'.",
").A > K ( 6 c d v w !.E J -.T +.~.,.'.{.",
"] > , t 6 c =.n Q M E J ].^.%.@./.(.{._.",
"> / ( 6 l d v C :.<.R Y ^.%.>.[.}.|.1.2.",
", } u c d n L M N 3.O ^.+.@.,.'.4.2._._."};
