/* XPM */
static char * D:\My Games\Snake\Snake\Media\button2_xpm[] = {
"20 20 3 1",
" 	c None",
".	c #000000",
"+	c #FFFFFF",
"....................",
"....................",
"..++++++++++++++++..",
"..++++++++++++++++..",
"..++++++++++++++++..",
"..++++++++++++++++..",
"..++++++++++++++++..",
"..++++++++++++++++..",
"..++++++++++++++++..",
"..++++++++++++++++..",
"..++++++++++++++++..",
"..++++++++++++++++..",
"..++++++++++++++++..",
"..++++++++++++++++..",
"..++++++++++++++++..",
"..++++++++++++++++..",
"..++++++++++++++++..",
"..++++++++++++++++..",
"....................",
"...................."};
