/* XPM */
static char * D:\My Games\Snake\Snake\food_xpm[] = {
"20 20 3 1",
" 	c #00FF00",
".	c #FFFF55",
"+	c #FF0041",
"            .....   ",
"           ......   ",
"   ...    .......   ",
"   ....  .......    ",
"   ............     ",
"    ..........      ",
"     .......        ",
"      +..+++++      ",
"    ++++++++++++    ",
"  ++++++++++++++++  ",
" ++++++++++++++++++ ",
" ++++++++++++++++++ ",
"++++++++++++++++++++",
"++++++++++++++++++++",
"++++++++++++++++++++",
"++++++++++++++++++++",
" ++++++++++++++++++ ",
" ++++++++++++++++++ ",
"  ++++++++++++++++  ",
"    ++++++++++++    "};
