/* XPM */
static char * D:\My Games\Snake\Snake\goback_button_xpm[] = {
"150 100 5 1",
" 	c #00FF00",
".	c #BE00FF",
"+	c #710038",
"@	c #71001C",
"#	c #DF7DFF",
"                                                                                                                                                      ",
"                                                                                                                                                      ",
"                                                                                                                                                      ",
"                                                                                                                                                      ",
"                                                                                                                                                      ",
"                                                                                                                                                      ",
"                                                                                                                                                      ",
"                                                                                                                                                      ",
"                                                                                                                                                      ",
"                           .                                                                                                                          ",
"                          ..                                                                                                                          ",
"                         .+.                                                                                                                          ",
"                        .++.                                                                                                                          ",
"                       .+++.                                                                                                                          ",
"                      .++++.                                                                                                                          ",
"                     .+++++.                                                                                                                          ",
"                    .++++++.                                                                                                                          ",
"                   .+++++++.                                                                                                                          ",
"                  .++++++++.                                                                                                                          ",
"                 .+++++++++.                                                                                                                          ",
"                .++++++++++.                                                                                                                          ",
"               .+++++++++++.                                                                                                                          ",
"              .++++++++++++...................................................................................................                        ",
"             .+++++++++++++++++++++++++++++++++++++++++++++++++++++++++++++++++++++++++++++++++++++++++++++++++++++++++++++..                         ",
"            .++++++++++++++++++++++++++++++++++++++++++++++++++++++++++++++++++++++++++++++++++++++++++++++++++++++++++++..                           ",
"           .+++++++++++++++++++++++++++++++++++++++++++++++++++++++++++++++++++++++++++++++++++++++++++++++++++++++++++..                             ",
"          .+++++++++++++++++++++++++++++++++++++++++++++++++++++++++++++++++++++++++++++++++++++++++++++++++++++++++++.                               ",
"         .++++++++++++++++++++++++++++++++++++++++++++++++++++++++++++++++++++++++++++++++++++++++++++++++++++++++++..                                ",
"        .+++++++++++++++++++++++++++++++++++++++++++++++++++++++++++++++++++++++++++++++++++++++++++++++++++++++++..                                  ",
"       .++++++++++++++++++++++++++++++++++++++++++++++++++++++++++++++++++++++++++++++++++++++++++++++++++++++++..                                    ",
"      .++++++++++++++++++++++++++++++++++++++++++++++++++++++++++++++++++++++++++++++++++++++++++++++++++++++++.                                      ",
"     .+++++++++++++++++++++++++++++++++++++++++++++++++++++++++++++++++++++++++++++++++++++++++++++++++++++++..                                       ",
"    .++++++++++++++++++++++++++++++++++++++++++++++++++++++++++++++++++++++++++++++++++++++++++++++++++++++..                                         ",
"   .+++++++++++++++++++++++++++++++++++++++++++++++++++++++++++++++++++++++++++++++++++++++++++++++++++++..                                           ",
"  .+++++++++++++++++++++++++++++++++++++++++++++++++++++++++++++++++++++++++++++++++++++++++++++++++++++.                                             ",
"   .+++++++++++++++++++++++++++++++++++++++++++++++++++++++++++++++++++++++++++++++++++++++++++++++++++++..                                           ",
"    .++++++++++++++++++++++++++++++++++++++++++++++++++++++++++++++++++++++++++++++++++++++++++++++++++++++..                                         ",
"     .+++++++++++++++++++++++++++++++++++++++++++++++++++++++++++++++++++++++++++++++++++++++++++++++++++++++..                                       ",
"      .++++++++++++++++++++++++++++++++++++++++++++++++++++++++++++++++++++++++++++++++++++++++++++++++++++++++.                                      ",
"       .++++++++++++++++++++++++++++++++++++++++++++++++++++++++++++++++++++++++++++++++++++++++++++++++++++++++..                                    ",
"        .+++++++++++++++++++++++++++++++++++++++++++++++++++++++++++++++++++++++++++++++++++++++++++++++++++++++++..                                  ",
"         .++++++++++++++++++++++++++++++++++++++++++++++++++++++++++++++++++++++++++++++++++++++++++++++++++++++++++..                                ",
"          .+++++++++++++++++++++++++++++++++++++++++++++++++++++++++++++++++++++++++++++++++++++++++++++++++++++++++++.                               ",
"           .+++++++++++++++++++++++++++++++++++++++++++++++++++++++++++++++++++++++++++++++++++++++++++++++++++++++++++..                             ",
"            .++++++++++++++++++++++++++++++++++++++++++++++++++++++++++++++++++++++++++++++++++++++++++++++++++++++++++++..                           ",
"             .+++++++++++++++++++++++++++++++++++++++++++++++++++++++++++++++++++++++++++++++++++++++++++++++++++++++++++++..                         ",
"              .++++++++++++...................................................................................................                        ",
"               .+++++++++++.                                                                                                                          ",
"                .++++++++++.                                                                                                                          ",
"                 .+++++++++.                                                                                                                          ",
"                  .++++++++.                                                                                                                          ",
"                   .+++++++.                                                                                                                          ",
"                    .++++++.                                                                                                                          ",
"                     .+++++.                                                                                                                          ",
"                      .++++.                                                                                                                          ",
"                       .+++.                                                                                                                          ",
"                        .++.                                                                                                                          ",
"                         .+.                                                                                                                          ",
"                          ..                                                                                                                          ",
"                           .                                                                                                                          ",
"                                                                                                                                                      ",
"                                                                                                                                                      ",
"                                                                                                                                                      ",
"                                                                                                                                                      ",
"                                                                                                                                                      ",
"                                                                                                                                                      ",
"                +++++++++++++++++     ++++++++++++               @@@@@@@@@@@@@@@  @@@@@@@@@@@@@@  @@@@@@@@@@@@@@@  @@@@@@      @@@@@@@                ",
"                +...............+     +..........+               @.............@  @............@  @.............@  @....@     @.....@                 ",
"                +...............+     +..........+               @....@@@@.....@  @............@  @.............@  @....@    @.....@                  ",
"                +...............+     +..........+               @...@    @....@  @............@  @.............@  @....@   @.....@                   ",
"                +.....+++++++++++     +...+++++..+               @..@#     @...@  @............@  @...@@@@@@@@@@@  @....@  @.....@                    ",
"                +.....+               +...+   +..+               @..@#     @...@  @...@@@@@....@  @...@            @....@ @.....@                     ",
"                +.....+               +...+   +..+               @..@#     @...@  @...@    @...@  @...@            @....@@.....@                      ",
"                +.....+               +...+   +..+               @...@    @....@  @...@    @...@  @...@            @..........@                       ",
"                +.....+               +...+   +..+               @....@@@@.....@  @...@    @...@  @...@            @.........@                        ",
"                +.....+               +...+   +..+               @.............@  @...@    @...@  @...@            @........@@                        ",
"                +.....+    ++++++++   +...+   +..+               @@@@@@@@@@@@@@@  @...@@@@@@...@  @...@            @..........@                       ",
"                +.....+    +......+   +...+   +..+               @.............@  @............@  @...@            @...........@                      ",
"                +.....+    +......+   +...+   +..+               @....@@@@@....@  @...@@@@@@...@  @...@            @....@.......@                     ",
"                +.....+    +++..+++   +...+   +..+               @...@     @...@  @...@    @...@  @...@            @....@@.......@                    ",
"                +.....+      +..+     +...+   +..+               @..@#      @..@  @...@    @...@  @...@            @....@ @.......@                   ",
"                +.....+      +..+     +...+   +..+               @..@#      @..@  @...@    @...@  @...@            @....@  @.......@                  ",
"                +.....++++++++..+     +...+   +..+               @..@#      @..@  @...@    @...@  @...@@@@@@@@@@@  @....@   @.......@                 ",
"                +...............+     +...+++++..+               @...@     @...@  @...@    @...@  @.............@  @....@    @.......@                ",
"                +...............+     +..........+               @...#@@@@@....@  @...@    @...@  @.............@  @....@     @.......@               ",
"                +...............+     +..........+               @...#.........@  @...@    @...@  @.............@  @....@      @@@@@@@@@              ",
"                +++++++++++++++++     ++++++++++++               @@@@@@@@@@@@@@@  @@@@@    @@@@@  @@@@@@@@@@@@@@@  @@@@@@                             ",
"                                                                                                                                                      ",
"                                                                                                                                                      ",
"                                                                                                                                                      ",
"                                                                                                                                                      ",
"                                                                                                                                                      ",
"                                                                                                                                                      ",
"                                                                                                                                                      ",
"                                                                                                                                                      ",
"                                                                                                                                                      ",
"                                                                                                                                                      ",
"                                                                                                                                                      ",
"                                                                                                                                                      ",
"                                                                                                                                                      "};
