/* XPM */
static char * D:\My Games\Snake\Snake\head_xpm[] = {
"20 20 5 1",
" 	c #00FF00",
".	c #0041FF",
"+	c #FFFF00",
"@	c #000000",
"#	c #FF0000",
"     ...........    ",
"    .............   ",
"   ...............  ",
"  ...+++....+++.... ",
" ...++@++..++@++....",
" ...++@++..++@++....",
"....+++++..+++++....",
".....+++....+++.....",
"....................",
".........##.........",
"........####........",
".......######.......",
".......######.......",
".......######.......",
" ......######.......",
" ......######.......",
"  ......####....... ",
"   ......##.......  ",
"    .............   ",
"     ...........    "};
