/* XPM */
static char * D:\My Games\Snake\Snake\monster_body_xpm[] = {
"20 20 5 1",
" 	c #00FF00",
".	c #0C0B16",
"+	c #2417D7",
"@	c #2316D2",
"#	c #F91D56",
"          ..        ",
"     ++   ..     +  ",
"     +++  ..    ++  ",
"      ++ @@.   +++  ",
"       ++@@@@@+++   ",
" ### @@@@@@@@@@@   #",
" ####@@@@@@@@@@@ ###",
"   #@@@@@@@@@@@@### ",
"    @@@@@@@@@@@@## #",
"   @@@@@@@@@@@@@@@  ",
"...@@@@@@@@@@@@@@@..",
"...@@@@@@@@@@@@@@...",
"    @@@@@@@@@@@@@   ",
"    @@@@@@@@@@@@@   ",
"  +++@@@@@@@@@@@### ",
" ++++@@@@@@@@@@@####",
" ++   #@@@@@@@+   # ",
"     ### @@@ +++    ",
"     ##  ..   ++    ",
"      #  ..   ++    "};
