/* XPM */
static char * D:\My Games\Snake\Snake\monster_head_xpm[] = {
"20 20 6 1",
" 	c #010308",
".	c #00FF00",
"+	c #FF0404",
"@	c #FFF404",
"#	c #A174BD",
"$	c #0838FB",
"   ..............   ",
"    .....+++....    ",
"     .++++++++      ",
".     +++++++++     ",
".    +++++++++++   .",
"..  +@@@+++++@@@+  .",
"..++@@@@@+++@@@@@++.",
"..++@@#@@+++@@#@@++.",
"..++@@@@@+++@@@@@++.",
".++++@@@+++++@@@++++",
".+++++++++++++++++++",
".+++++++++++++++++++",
"..+++++$$$$$$$+++++.",
"..++++$$$$+$$$$++++.",
"..+++$+$$$+$$$+$+++.",
"...++++$$+++$$++++..",
"....+++$+++++$+++...",
".....+++++++++++....",
"......+++++++++.....",
".........+++........"};
