/* XPM */
static char * D:\My Games\Snake\Snake\no_pressed_button_xpm[] = {
"72 33 665 2",
"  	c None",
". 	c #00FFFF",
"+ 	c #91FFFF",
"@ 	c #8BFFFF",
"# 	c #88FFFF",
"$ 	c #86FFFF",
"% 	c #87FFFF",
"& 	c #85FFFF",
"* 	c #80FFF4",
"= 	c #76F9E3",
"- 	c #75F8E0",
"; 	c #97FFFF",
"> 	c #93FFFF",
", 	c #95FFFF",
"' 	c #92FFFF",
") 	c #89FFF6",
"! 	c #83FFEC",
"~ 	c #84FFEB",
"{ 	c #82FFEA",
"] 	c #84FFEA",
"^ 	c #82FFEB",
"/ 	c #80FFE3",
"( 	c #7AF6DA",
"_ 	c #7DFBDD",
": 	c #80FFE5",
"< 	c #79F4DA",
"[ 	c #75EBD1",
"} 	c #A0FFFF",
"| 	c #9DFFFF",
"1 	c #99FFFF",
"2 	c #90FFF1",
"3 	c #89FFE6",
"4 	c #83FFDD",
"5 	c #7CF2D1",
"6 	c #7AEBCC",
"7 	c #79EACB",
"8 	c #78EACA",
"9 	c #79E9CB",
"0 	c #78E9CB",
"a 	c #79EACA",
"b 	c #78EACB",
"c 	c #79EBCC",
"d 	c #7EF3D3",
"e 	c #81FAD8",
"f 	c #7EF3D2",
"g 	c #71DDC0",
"h 	c #6ACDB1",
"i 	c #A9FFFF",
"j 	c #A3FFFF",
"k 	c #96FFEB",
"l 	c #8AFFD9",
"m 	c #82F3CC",
"n 	c #7EEAC6",
"o 	c #7CE7C2",
"p 	c #7AE4C0",
"q 	c #7AE5C0",
"r 	c #7AE4C1",
"s 	c #79E4C0",
"t 	c #7AE3BF",
"u 	c #7CE8C3",
"v 	c #7DEAC6",
"w 	c #76DBB9",
"x 	c #69C3A4",
"y 	c #66BEA0",
"z 	c #AFFFFF",
"A 	c #A8FFF7",
"B 	c #96FFDF",
"C 	c #87F2C8",
"D 	c #80E7BD",
"E 	c #7EE4BA",
"F 	c #7EE3BB",
"G 	c #7EE3BA",
"H 	c #7FE4BB",
"I 	c #7EE4BB",
"J 	c #000000",
"K 	c #4B876E",
"L 	c #75D1AB",
"M 	c #49846B",
"N 	c #244136",
"O 	c #101D18",
"P 	c #050908",
"Q 	c #040807",
"R 	c #244035",
"S 	c #48836B",
"T 	c #73D0AA",
"U 	c #7EE3B9",
"V 	c #80E5BB",
"W 	c #7CDFB8",
"X 	c #73CFAA",
"Y 	c #68BC9A",
"Z 	c #B4FFFB",
"` 	c #AEFFF1",
" .	c #9AFFD6",
"..	c #8AEFBF",
"+.	c #84E4B5",
"@.	c #83E3B5",
"#.	c #82E3B5",
"$.	c #82E3B4",
"%.	c #0B1410",
"&.	c #7BD8AB",
"*.	c #83E2B5",
"=.	c #82E2B4",
"-.	c #82E2B5",
";.	c #83E3B4",
">.	c #81E1B2",
",.	c #45775F",
"'.	c #070C09",
").	c #060B09",
"!.	c #44775E",
"~.	c #80E1B3",
"{.	c #82E1B4",
"].	c #80DEB1",
"^.	c #76CEA4",
"/.	c #6DBB96",
"(.	c #6BBA95",
"_.	c #BBFFF3",
":.	c #B4FFE9",
"<.	c #A0FFCF",
"[.	c #8FEFB9",
"}.	c #88E3B0",
"|.	c #87E2AF",
"1.	c #86E2AF",
"2.	c #416D55",
"3.	c #87E2AE",
"4.	c #82DAA8",
"5.	c #2A4636",
"6.	c #87E1AE",
"7.	c #83DDAB",
"8.	c #79CB9E",
"9.	c #6BB58C",
"0.	c #68AE87",
"a.	c #BFFFE7",
"b.	c #B9FFE1",
"c.	c #A6FFC9",
"d.	c #93EEB3",
"e.	c #8CE2AB",
"f.	c #8BE1A9",
"g.	c #8BE2A9",
"h.	c #8AE1AA",
"i.	c #8AE2AA",
"j.	c #040705",
"k.	c #7BC997",
"l.	c #8AE1A9",
"m.	c #8AE2A9",
"n.	c #304E3B",
"o.	c #121E16",
"p.	c #4E7F60",
"q.	c #74BC8E",
"r.	c #84D6A1",
"s.	c #85D7A1",
"t.	c #74BE8F",
"u.	c #508162",
"v.	c #131F17",
"w.	c #314F3B",
"x.	c #89E0A8",
"y.	c #8AE0A8",
"z.	c #87DAA4",
"A.	c #73BC8D",
"B.	c #5E9873",
"C.	c #63A078",
"D.	c #C0FFDC",
"E.	c #AFFFC9",
"F.	c #99F0AF",
"G.	c #90E2A5",
"H.	c #8FE1A4",
"I.	c #8FE0A4",
"J.	c #8FE0A3",
"K.	c #8FE1A3",
"L.	c #1C2C20",
"M.	c #35533C",
"N.	c #5A8E68",
"O.	c #395A41",
"P.	c #8BDB9F",
"Q.	c #8BDBA0",
"R.	c #395A42",
"S.	c #5B8F68",
"T.	c #8EDFA3",
"U.	c #8DDDA0",
"V.	c #80C892",
"W.	c #639B71",
"X.	c #578964",
"Y.	c #C4FFD3",
"Z.	c #BFFFCD",
"`.	c #A6FDB3",
" +	c #96E4A1",
".+	c #93E09D",
"++	c #94E09E",
"@+	c #93E09E",
"#+	c #94DF9E",
"$+	c #6EA776",
"%+	c #010101",
"&+	c #77B580",
"*+	c #93DF9E",
"=+	c #91DD9C",
"-+	c #141E15",
";+	c #344F37",
">+	c #334E37",
",+	c #141F16",
"'+	c #91DE9B",
")+	c #94E09D",
"!+	c #92DF9D",
"~+	c #8CD495",
"{+	c #6FA977",
"]+	c #527C58",
"^+	c #5F9065",
"/+	c #C6FFC6",
"(+	c #B8FFB9",
"_+	c #A1EDA2",
":+	c #98E199",
"<+	c #97DF98",
"[+	c #98DF98",
"}+	c #97E098",
"|+	c #2D432D",
"1+	c #273A27",
"2+	c #98DF99",
"3+	c #98E098",
"4+	c #699C6A",
"5+	c #080D08",
"6+	c #8ED18F",
"7+	c #8ED18E",
"8+	c #6A9E6B",
"9+	c #96DE97",
"0+	c #94DA94",
"a+	c #7CB77D",
"b+	c #527852",
"c+	c #527953",
"d+	c #CCFFBF",
"e+	c #B4FFAA",
"f+	c #A0E496",
"g+	c #9BDE93",
"h+	c #9BDF93",
"i+	c #9CDE92",
"j+	c #9BDE92",
"k+	c #9CDF92",
"l+	c #9CDE93",
"m+	c #9BDF92",
"n+	c #82BA7A",
"o+	c #020302",
"p+	c #6E9D67",
"q+	c #9CDF93",
"r+	c #43613F",
"s+	c #43603F",
"t+	c #446140",
"u+	c #9ADA90",
"v+	c #8AC682",
"w+	c #638E5D",
"x+	c #567A51",
"y+	c #D4FFBA",
"z+	c #CEFFB5",
"A+	c #B3F89D",
"B+	c #A2E08E",
"C+	c #9FDE8D",
"D+	c #A0DE8D",
"E+	c #A0DD8C",
"F+	c #9FDE8C",
"G+	c #A0DD8D",
"H+	c #A0DE8C",
"I+	c #415A39",
"J+	c #192316",
"K+	c #9EDA8B",
"L+	c #212E1D",
"M+	c #729E63",
"N+	c #9FDD8C",
"O+	c #709C63",
"P+	c #212F1D",
"Q+	c #9FDD8D",
"R+	c #98D286",
"S+	c #77A569",
"T+	c #56774C",
"U+	c #82B372",
"V+	c #D0FFAB",
"W+	c #C6FFA3",
"X+	c #ADE98F",
"Y+	c #A5DE88",
"Z+	c #A5DD87",
"`+	c #A4DD87",
" @	c #96C97A",
".@	c #070A06",
"+@	c #61824F",
"@@	c #A4DC87",
"#@	c #10160D",
"$@	c #94C679",
"%@	c #A4DD86",
"&@	c #92C578",
"*@	c #11170E",
"=@	c #A3DC87",
"-@	c #A0D783",
";@	c #80AC69",
">@	c #4D6840",
",@	c #72995E",
"'@	c #CFFF9F",
")@	c #C2FF95",
"!@	c #ADE285",
"~@	c #A8DD81",
"{@	c #A8DC81",
"]@	c #A8DC82",
"^@	c #A9DC81",
"/@	c #A9DC82",
"(@	c #A8DD82",
"_@	c #A9DD81",
":@	c #567142",
"<@	c #0E120B",
"[@	c #A0D07A",
"}@	c #050604",
"|@	c #A3D57C",
"1@	c #A9DD82",
"2@	c #A2D47C",
"3@	c #050704",
"4@	c #A4D67F",
"5@	c #83AB65",
"6@	c #495F38",
"7@	c #6A8B52",
"8@	c #D3FF97",
"9@	c #C7FD8E",
"0@	c #B1E17F",
"a@	c #ACDC7C",
"b@	c #ADDB7B",
"c@	c #ADDC7B",
"d@	c #ACDB7B",
"e@	c #ADDB7C",
"f@	c #ACDC7B",
"g@	c #ACDB7C",
"h@	c #ADDC7C",
"i@	c #A6D277",
"j@	c #12170D",
"k@	c #52683B",
"l@	c #050603",
"m@	c #A7D477",
"n@	c #A6D476",
"o@	c #060704",
"p@	c #A7D579",
"q@	c #85A960",
"r@	c #485D34",
"s@	c #6C884D",
"t@	c #D6FF90",
"u@	c #CBFA87",
"v@	c #B4E079",
"w@	c #AFDA75",
"x@	c #B1DB76",
"y@	c #B1DB75",
"z@	c #B1DA76",
"A@	c #B0DB76",
"B@	c #B0DB75",
"C@	c #B0DA75",
"D@	c #6D8748",
"E@	c #9CC268",
"F@	c #11150B",
"G@	c #9EC469",
"H@	c #B0DA76",
"I@	c #9EC368",
"J@	c #12170C",
"K@	c #AAD472",
"L@	c #88A75A",
"M@	c #495B31",
"N@	c #6D8749",
"O@	c #D3FF84",
"P@	c #CAF47D",
"Q@	c #B9DF74",
"R@	c #B5DA70",
"S@	c #B5DB70",
"T@	c #B3D86F",
"U@	c #202714",
"V@	c #424F28",
"W@	c #B5DA71",
"X@	c #B4DA70",
"Y@	c #242C16",
"Z@	c #819B4F",
"`@	c #809A4F",
" #	c #262E17",
".#	c #B4D970",
"+#	c #A9CC69",
"@#	c #7D964D",
"##	c #435129",
"$#	c #698041",
"%#	c #C9EB73",
"&#	c #C7E972",
"*#	c #BEDF6E",
"=#	c #B9D96A",
"-#	c #B9DA6A",
";#	c #BAD96A",
">#	c #BADA6B",
",#	c #B9D96B",
"'#	c #B9DA6B",
")#	c #BAD96B",
"!#	c #869D4C",
"~#	c #94AE55",
"{#	c #4F5D2E",
"]#	c #515F2E",
"^#	c #BADA6A",
"/#	c #505E2E",
"(#	c #B6D569",
"_#	c #9FBC5B",
":#	c #647539",
"<#	c #36401F",
"[#	c #637439",
"}#	c #CDEA6D",
"|#	c #CFEC6D",
"1#	c #C9E66C",
"2#	c #BEDA66",
"3#	c #BCD865",
"4#	c #BDD964",
"5#	c #BDD965",
"6#	c #BDD865",
"7#	c #BED864",
"8#	c #BDD864",
"9#	c #BED964",
"0#	c #BED965",
"a#	c #343C1C",
"b#	c #303719",
"c#	c #BED865",
"d#	c #839646",
"e#	c #0B0D06",
"f#	c #B3CC5F",
"g#	c #B1CC5E",
"h#	c #0B0C05",
"i#	c #849746",
"j#	c #B8D362",
"k#	c #95AB4F",
"l#	c #515D2B",
"m#	c #37401D",
"n#	c #6F803B",
"o#	c #DAF36B",
"p#	c #D2EB68",
"q#	c #C5DC61",
"r#	c #C2D85F",
"s#	c #C1D85E",
"t#	c #C1D85F",
"u#	c #C2D75E",
"v#	c #C2D85E",
"w#	c #9EB14E",
"x#	c #010100",
"y#	c #869642",
"z#	c #C1D75F",
"A#	c #BFD55D",
"B#	c #191B0C",
"C#	c #454D22",
"D#	c #454D21",
"E#	c #1A1D0D",
"F#	c #BFD65E",
"G#	c #C1D75E",
"H#	c #B4CA59",
"I#	c #879642",
"J#	c #454E22",
"K#	c #464E22",
"L#	c #D3E760",
"M#	c #D1E45F",
"N#	c #CBDC5B",
"O#	c #C6D759",
"P#	c #C5D759",
"Q#	c #C6D859",
"R#	c #C6D75A",
"S#	c #C6D85A",
"T#	c #4C5222",
"U#	c #1F210D",
"V#	c #7B8637",
"W#	c #515824",
"X#	c #C2D257",
"Y#	c #515924",
"Z#	c #7C8838",
"`#	c #C2D357",
" $	c #A8B74C",
".$	c #68712F",
"+$	c #393E19",
"@$	c #535B25",
"#$	c #CFDB55",
"$$	c #D0DD56",
"%$	c #CBD854",
"&$	c #CAD753",
"*$	c #CAD754",
"=$	c #CAD653",
"-$	c #CAD654",
";$	c #B5C04A",
">$	c #070803",
",$	c #44481B",
"'$	c #1C1E0B",
")$	c #757B30",
"!$	c #ABB647",
"~$	c #C1CC4F",
"{$	c #C2CE50",
"]$	c #ABB646",
"^$	c #767D31",
"/$	c #1D1F0C",
"($	c #44491C",
"_$	c #C8D452",
":$	c #BCC74D",
"<$	c #8E983B",
"[$	c #4B4F1F",
"}$	c #393C18",
"|$	c #C8CF4C",
"1$	c #C7CE4C",
"2$	c #CBD34C",
"3$	c #CED44E",
"4$	c #CDD54D",
"5$	c #CED64D",
"6$	c #CED64E",
"7$	c #CED54E",
"8$	c #CFD64E",
"9$	c #CFD54D",
"0$	c #CFD54E",
"a$	c #646826",
"b$	c #CED54D",
"c$	c #C6CD4A",
"d$	c #3F4117",
"e$	c #C5CC49",
"f$	c #CFD64D",
"g$	c #CDD44D",
"h$	c #C0C848",
"i$	c #9EA33C",
"j$	c #616524",
"k$	c #383A15",
"l$	c #4C4F1D",
"m$	c #BBBD40",
"n$	c #B4B63E",
"o$	c #BEC141",
"p$	c #CED047",
"q$	c #D1D448",
"r$	c #D2D448",
"s$	c #D2D548",
"t$	c #D3D548",
"u$	c #C9CA44",
"v$	c #121306",
"w$	c #CFD247",
"x$	c #6D6E25",
"y$	c #0A0A03",
"z$	c #6B6D24",
"A$	c #D1D348",
"B$	c #C4C744",
"C$	c #A3A438",
"D$	c #666823",
"E$	c #3A3B14",
"F$	c #3D3D15",
"G$	c #B3B138",
"H$	c #B2B037",
"I$	c #C3C03C",
"J$	c #D2CF42",
"K$	c #D6D343",
"L$	c #D6D342",
"M$	c #D7D442",
"N$	c #D7D443",
"O$	c #D6D442",
"P$	c #D7D542",
"Q$	c #D6D443",
"R$	c #D6D542",
"S$	c #7F7E27",
"T$	c #C5C33C",
"U$	c #7B7925",
"V$	c #3D3C12",
"W$	c #1A1A08",
"X$	c #080802",
"Y$	c #1A1908",
"Z$	c #3B3B12",
"`$	c #7A7926",
" %	c #C3C13C",
".%	c #D6D543",
"+%	c #D5D242",
"@%	c #C9C63F",
"#%	c #A6A433",
"$%	c #696720",
"%%	c #3A3912",
"&%	c #696820",
"*%	c #B5B033",
"=%	c #C5BE37",
"-%	c #D4CD3B",
";%	c #D7D13B",
">%	c #DAD33C",
",%	c #DBD43C",
"'%	c #DBD43D",
")%	c #DAD43C",
"!%	c #DBD33C",
"~%	c #DBD33D",
"{%	c #DAD33D",
"]%	c #D5CF3B",
"^%	c #CBC538",
"/%	c #A7A32F",
"(%	c #6B671E",
"_%	c #3D3A11",
":%	c #3B3910",
"<%	c #6A661D",
"[%	c #B9AF2E",
"}%	c #B2A92C",
"|%	c #BAB02E",
"1%	c #C8BD32",
"2%	c #D4C935",
"3%	c #D9CD36",
"4%	c #DBD036",
"5%	c #DED137",
"6%	c #DED237",
"7%	c #DFD337",
"8%	c #DFD336",
"9%	c #E0D337",
"0%	c #E0D336",
"a%	c #DFD237",
"b%	c #D0C534",
"c%	c #BEB32F",
"d%	c #9D9527",
"e%	c #696319",
"f%	c #3E3A0F",
"g%	c #3C390F",
"h%	c #6C661B",
"i%	c #B0A226",
"j%	c #998D21",
"k%	c #9C9122",
"l%	c #ADA025",
"m%	c #B9AC29",
"n%	c #CABB2C",
"o%	c #D8C82F",
"p%	c #DDCC31",
"q%	c #DECC30",
"r%	c #DDCC30",
"s%	c #DECC31",
"t%	c #DDCD30",
"u%	c #DECD31",
"v%	c #DDCD31",
"w%	c #DCCB30",
"x%	c #D5C42E",
"y%	c #C3B52A",
"z%	c #B4A627",
"A%	c #9E9222",
"B%	c #786F1A",
"C%	c #554E12",
"D%	c #3D390D",
"E%	c #423C0E",
"F%	c #6F6618",
"G%	c #A5951F",
"H%	c #8E801A",
"I%	c #807418",
"J%	c #7E7217",
"K%	c #94861C",
"L%	c #AD9D20",
"M%	c #B6A423",
"N%	c #B4A322",
"O%	c #B2A121",
"P%	c #B3A221",
"Q%	c #B3A122",
"R%	c #B3A121",
"S%	c #B2A122",
"T%	c #B2A221",
"U%	c #B2A222",
"V%	c #B3A222",
"W%	c #B1A022",
"X%	c #9F901E",
"Y%	c #7C6F17",
"Z%	c #625812",
"`%	c #534C0F",
" &	c #443E0D",
".&	c #413B0C",
"+&	c #564E10",
"@&	c #988719",
"#&	c #807115",
"$&	c #807114",
"%&	c #7F7014",
"&&	c #6F6212",
"*&	c #655910",
"=&	c #635810",
"-&	c #62560F",
";&	c #584E0E",
">&	c #453D0B",
",&	c #554B0E",
"'&	c #C3A91A",
")&	c #A79016",
"!&	c #988414",
"~&	c #958114",
"{&	c #948014",
"]&	c #8C7913",
"^&	c #806F11",
". . . . . . . . . . . . . . . . . . . . . . . . . . . . . . . . . . . . . . . . . . . . . . . . . . . . . . . . . . . . . . . . . . . . . . . . ",
". . . . . . . . . . . . . + @ # $ % % % $ $ $ % $ $ % % % $ $ $ % $ $ $ $ $ $ $ % $ $ % $ $ $ % $ $ % % % $ $ % & * = - . . . . . . . . . . . . ",
". . . . . . . . . . ; > , ' ) ! ~ { ] ^ ] ^ ^ ] { { ^ ] ^ ] ] { { ~ ~ ~ ~ ~ { ~ ~ ~ ^ ~ ^ ] { ] ~ { { ^ ~ ^ ^ ^ { / ( _ : < [ . . . . . . . . . ",
". . . . . . . . } | 1 2 3 4 5 6 7 7 8 9 0 7 a 7 0 7 b b 8 7 b 7 7 7 b 7 9 9 7 b 7 b 7 7 0 b 7 a b b 7 b 9 b 0 7 7 7 c d e f b g h . . . . . . . ",
". . . . . . . i j k l m n o p p p p p p p q r s p p p p s r p p r p q p p p p p r p p p s p s s p s p p p p p p p t p o u n v w x y . . . . . . ",
". . . . . . z A B C D E F G H G I J J J J K F G E E G E I G F J J J E G F G F F G G E L M N O P Q O R S T G E E G I I E U G V W X Y Y . . . . . ",
". . . . . Z `  ...+.@.#.#.#.#.$.#.J J J J %.&.*.#.=.#.@.#.#.@.J J J =.-.*.;.$.#.@.>.,.'.J J J J J J J J ).!.~.;.#.@.-.*.#.#.{.=.].^./.(.. . . . ",
". . . . _.:.<.[.}.|.|.|.|.|.1.1.1.J J J J J 2.|.|.1.|.1.1.|.1.J J J 3.|.|.|.1.1.4.5.J J J J J J J J J J J J 5.4.|.1.|.|.1.|.1.6.6.7.8.9.0.. . . ",
". . . a.b.c.d.e.f.f.f.g.h.g.g.i.f.J J J J J j.k.l.f.f.f.f.f.l.J J J g.f.m.f.f.f.n.J J J o.p.q.r.s.t.u.v.J J J w.m.m.f.f.g.l.h.f.x.y.z.A.B.C.. . ",
". . . D.E.F.G.H.H.I.H.J.K.K.I.H.J.J J J L.J J M.H.J.H.I.H.I.J.J J J H.I.J.H.J.N.J J J O.P.H.K.K.H.K.K.Q.R.J J J S.K.H.H.I.H.K.I.J.T.U.V.W.X.. . ",
". . Y.Z.`. +.+.+++.+++@+#+@+@+@+++J J J $+J J %+&+@+.+*+@+@+++J J J .+.+@+*+=+-+J J ;+@+@+@+.+@+@+++++#+@+>+J J ,+'+)+@+++.+*+@+++@+!+~+{+]+^+. ",
". . /+(+_+:+<+<+[+[+[+[+<+[+<+}+<+J J J <+|+J J 1+[+[+[+<+[+2+J J J 3+}+<+<+4+J J 5+6+<+}+[+[+<+<+<+<+[+<+7+5+J J 8+[+<+<+[+<+[+[+[+9+0+a+b+c+. ",
". . d+e+f+g+h+h+i+j+k+l+i+j+m+l+j+J J J l+n+o+J J p+q+j+l+q+m+J J J j+k+i+k+r+J J s+g+j+j+i+j+i+l+i+k+j+l+l+s+J J t+j+q+k+i+k+q+g+j+j+u+v+w+x+. ",
". y+z+A+B+C+D+E+D+F+D+D+F+G+E+D+H+J J J D+G+I+J J J+K+D+D+E+D+J J J D+D+C+E+L+J J M+G+D+N+G+D+D+H+G+D+H+G+E+O+J J P+G+G+D+F+C+F+Q+C+D+N+R+S+T+U+",
". V+W+X+Y+Z+Z+`+`+`+`+`+`+`+Z+Z+`+J J J `+`+ @.@J J +@`+Z+`+@@J J J @@`+`+`+#@J J $@`+`+`+`+`+%@Z+`+`+`+`+`+&@J J *@%@`+`+`+`+%@`+%@`+=@-@;@>@,@",
". '@)@!@~@~@{@]@^@{@{@/@{@{@(@{@_@J J J ~@{@{@:@J J <@[@(@~@^@J J J ~@{@_@~@}@J J |@]@]@1@{@{@]@{@{@~@{@{@{@2@J J 3@/@~@{@{@(@{@^@^@_@/@4@5@6@7@",
". 8@9@0@a@b@c@d@b@c@d@e@c@f@a@c@g@J J J h@d@g@i@j@J J k@h@f@a@J J J c@c@g@b@l@J J m@d@c@f@g@e@e@d@g@h@c@d@h@n@J J o@a@g@a@c@g@f@f@e@e@f@p@q@r@s@",
". t@u@v@w@x@x@x@x@y@x@z@x@z@z@x@A@J J J y@B@C@x@D@J J o@E@z@A@J J J A@B@x@y@F@J J G@x@A@H@A@A@A@x@z@x@A@A@x@I@J J J@H@y@z@y@x@x@z@x@y@x@K@L@M@N@",
". O@P@Q@R@R@R@R@R@R@R@R@R@R@R@R@R@J J J R@R@R@S@T@U@J J V@R@R@J J J R@W@X@R@Y@J J Z@R@R@R@X@R@R@R@R@R@R@R@R@`@J J  #R@R@R@R@R@R@R@R@R@.#+#@###$#",
". %#&#*#=#-#=#=#;#>#,#=#,#'#)#=#>#J J J -#=#,#-#)#!#J J J ~#-#J J J -#,#=#-#{#J J ]#-#^#'#=#-#=#,#=#=#=#=#,#/#J J ]#-#'#=#-#'#,#,#-#-#(#_#:#<#[#",
". }#|#1#2#3#4#4#5#6#4#4#5#7#8#5#6#J J J 8#5#9#4#0#0#a#J J b#c#J J J 6#6#c#c#d#J J e#f#6#9#9#0#8#4#c#8#9#4#g#h#J J i#c#8#6#7#6#c#c#6#6#j#k#l#m#n#",
". . o#p#q#r#s#t#r#t#r#t#t#r#u#t#r#J J J t#t#r#r#v#r#w#x#J J y#J J J z#s#r#t#A#B#J J C#s#r#r#t#r#v#r#t#s#r#D#J J E#F#t#v#r#t#r#r#s#t#G#H#I#J#K#. ",
". . L#M#N#O#P#P#O#O#Q#R#P#S#O#O#P#J J J O#O#O#P#O#O#O#T#J J U#J J J O#O#O#Q#Q#V#J J J W#X#R#Q#O#O#O#O#X#Y#J J J Z#R#S#O#P#O#O#O#O#O#`# $.$+$@$. ",
". . #$$$$$%$&$*$*$=$-$=$&$=$-$*$&$J J J =$=$-$&$=$=$*$;$>$J J J J J &$*$-$=$=$*$,$J J J '$)$!$~${$]$^$/$J J J ($*$-$=$=$=$&$&$-$&$_$:$<$[$}$. . ",
". . . |$1$2$3$4$5$6$7$6$8$7$9$6$0$J J J 6$6$6$7$6$8$8$5$a$J J J J J 5$7$6$7$9$b$c$d$J J J J J J J J J J J J d$e$5$7$6$f$6$b$7$6$g$h$i$j$k$l$. . ",
". . . m$n$o$p$q$r$s$s$t$s$s$s$s$t$J J J t$s$t$s$s$t$s$t$u$v$J J J J s$t$t$s$t$t$t$w$x$y$J J J J J J J J y$z$w$s$t$s$t$s$s$s$t$A$B$C$D$E$F$. . . ",
". . . . G$H$I$J$K$L$M$N$O$O$P$N$M$J J J Q$N$M$R$M$M$O$M$O$S$J J J J O$N$O$M$N$N$M$M$Q$T$U$V$W$X$X$Y$Z$`$ %.%M$P$P$N$.%P$M$M$+%@%#%$%Z$%%&%. . . ",
". . . . . *%*%=%-%;%>%>%,%'%'%)%'%!%!%>%!%,%'%~%!%'%,%)%'%,%{%~%'%'%'%~%,%!%,%'%,%'%'%!%'%)%'%,%'%'%'%'%~%'%,%'%'%'%,%!%{%]%^%/%(%_%:%<%. . . . ",
". . . . . . [%}%|%1%2%3%4%5%6%7%7%7%7%7%7%8%7%7%7%9%7%7%7%7%7%7%7%7%0%7%7%7%7%7%7%7%7%9%8%7%7%7%7%7%7%7%7%a%7%7%7%6%4%3%b%c%d%e%f%g%h%. . . . . ",
". . . . . . . i%j%k%l%m%n%o%p%q%r%r%r%r%q%r%r%r%s%r%r%r%r%r%t%p%q%s%q%r%r%s%r%q%r%r%r%r%u%r%p%r%v%r%r%r%r%r%r%q%w%x%y%z%A%B%C%D%E%F%. . . . . . ",
". . . . . . . . G%H%I%J%K%L%M%N%O%P%O%Q%R%Q%S%O%T%O%U%O%O%U%P%R%T%P%V%R%Q%V%R%Q%Q%U%O%O%O%S%O%R%O%S%S%V%O%T%V%P%W%X%Y%Z%`% &.&+&. . . . . . . . ",
". . . . . . . . . . @&#&$&%&&&*&=&=&=&=&=&=&=&=&=&=&=&=&=&=&=&=&=&=&=&=&=&=&=&=&=&=&=&=&=&=&=&=&=&=&=&=&=&=&=&=&-&;&>&>&,&=&. . . . . . . . . . ",
". . . . . . . . . . . . . '&)&!&~&~&~&~&~&~&~&~&~&~&~&~&~&~&~&~&~&~&~&~&~&~&~&~&~&~&~&~&~&~&~&~&~&~&~&~&~&~&~&~&{&]&^&]&. . . . . . . . . . . . "};
