/* XPM */
static char * D:\My Games\Snake\Snake\no_rest_button_xpm[] = {
"72 33 674 2",
"  	c None",
". 	c #00FFFF",
"+ 	c #89E3C5",
"@ 	c #83D9BC",
"# 	c #7FD2B6",
"$ 	c #7ED1B7",
"% 	c #80D3B5",
"& 	c #80D1B7",
"* 	c #7ED1B5",
"= 	c #80D3B7",
"- 	c #80D1B5",
"; 	c #7FD0B6",
"> 	c #79C8AE",
", 	c #71BAA2",
"' 	c #70B89F",
") 	c #8EE4C4",
"! 	c #8CDFBE",
"~ 	c #8BE0BF",
"{ 	c #89DDBD",
"] 	c #80CEB0",
"^ 	c #7BC7AA",
"/ 	c #7BC6A8",
"( 	c #7AC5A8",
"_ 	c #7BC5A8",
": 	c #7AC5A9",
"< 	c #7AC6A9",
"[ 	c #7BC5A9",
"} 	c #7AC6A8",
"| 	c #7AC4A7",
"1 	c #77BFA3",
"2 	c #72B99D",
"3 	c #74BA9F",
"4 	c #78C0A4",
"5 	c #71B79D",
"6 	c #6DAF96",
"7 	c #94ECC5",
"8 	c #91E5C1",
"9 	c #8EDEBB",
"0 	c #85D0B0",
"a 	c #7FC8A8",
"b 	c #7ABFA1",
"c 	c #73B699",
"d 	c #70B094",
"e 	c #70AF93",
"f 	c #70B093",
"g 	c #6FAF93",
"h 	c #70B194",
"i 	c #75B89A",
"j 	c #77BC9D",
"k 	c #74B699",
"l 	c #6AA58B",
"m 	c #629981",
"n 	c #9AEEC5",
"o 	c #94E5BD",
"p 	c #88D3AD",
"q 	c #7FC1A0",
"r 	c #76B696",
"s 	c #72B091",
"t 	c #71AD90",
"u 	c #6FAB8E",
"v 	c #6FAC8E",
"w 	c #6FAB8D",
"x 	c #70AB8E",
"y 	c #70AB8D",
"z 	c #70AC8E",
"A 	c #70AC8D",
"B 	c #6FAA8D",
"C 	c #71AF91",
"D 	c #73B092",
"E 	c #72B092",
"F 	c #6CA589",
"G 	c #5F937A",
"H 	c #5E8F76",
"I 	c #9EEEC2",
"J 	c #98E3BA",
"K 	c #88CDA6",
"L 	c #7AB895",
"M 	c #74AE8E",
"N 	c #72AC8B",
"O 	c #72AB8C",
"P 	c #72AC8C",
"Q 	c #000000",
"R 	c #436552",
"S 	c #72AB8B",
"T 	c #699D80",
"U 	c #426350",
"V 	c #213128",
"W 	c #0E1612",
"X 	c #040705",
"Y 	c #040605",
"Z 	c #203028",
"` 	c #416250",
" .	c #689D80",
"..	c #72AA8B",
"+.	c #73AB8B",
"@.	c #73AD8D",
"#.	c #70A88A",
"$.	c #689C80",
"%.	c #5F8E73",
"&.	c #A2EEBE",
"*.	c #9CE3B6",
"=.	c #8BCCA4",
"-.	c #7CB591",
";.	c #75AD8A",
">.	c #74AB89",
",.	c #74AC89",
"'.	c #75AC8A",
").	c #75AC89",
"!.	c #75AB89",
"~.	c #0A0F0C",
"{.	c #6FA382",
"].	c #74A987",
"^.	c #3D5A48",
"/.	c #060907",
"(.	c #050806",
"_.	c #3D5947",
":.	c #73A987",
"<.	c #75AA89",
"[.	c #75AA88",
"}.	c #73A886",
"|.	c #699B7C",
"1.	c #618E72",
"2.	c #608D71",
"3.	c #A5EEBB",
"4.	c #A0E5B4",
"5.	c #8ECCA0",
"6.	c #7FB68F",
"7.	c #79AD88",
"8.	c #77AC87",
"9.	c #77AB87",
"0.	c #78AC86",
"a.	c #77AC86",
"b.	c #395341",
"c.	c #78AB87",
"d.	c #78AC87",
"e.	c #73A482",
"f.	c #25352A",
"g.	c #72A482",
"h.	c #77AA87",
"i.	c #77AA86",
"j.	c #75A883",
"k.	c #6C9B7A",
"l.	c #5F8A6C",
"m.	c #5C8468",
"n.	c #A7EAB6",
"o.	c #A3E5B0",
"p.	c #91CC9F",
"q.	c #81B58C",
"r.	c #7BAC85",
"s.	c #7AAC85",
"t.	c #7AAB85",
"u.	c #7AAB84",
"v.	c #040604",
"w.	c #6D9976",
"x.	c #7AAC84",
"y.	c #2A3C2E",
"z.	c #101611",
"A.	c #45614B",
"B.	c #66906E",
"C.	c #74A27E",
"D.	c #74A37E",
"E.	c #679170",
"F.	c #46634C",
"G.	c #111812",
"H.	c #2B3C2E",
"I.	c #7AAA85",
"J.	c #76A681",
"K.	c #668F6F",
"L.	c #537459",
"M.	c #577A5F",
"N.	c #A8E7B0",
"O.	c #98D19F",
"P.	c #86B88B",
"Q.	c #7DAD83",
"R.	c #7DAB82",
"S.	c #7DAC82",
"T.	c #7CAC82",
"U.	c #19221A",
"V.	c #2E3F30",
"W.	c #7DAB83",
"X.	c #7CAC83",
"Y.	c #7CAB82",
"Z.	c #4E6D52",
"`.	c #324434",
" +	c #7AA77E",
".+	c #79A77F",
"++	c #324534",
"@+	c #4F6D53",
"#+	c #7CAB83",
"$+	c #7BA980",
"%+	c #709974",
"&+	c #56765A",
"*+	c #4C694F",
"=+	c #AAE6AB",
"-+	c #A6DFA6",
";+	c #90C290",
">+	c #81AF82",
",+	c #80AB80",
"'+	c #7FAB80",
")+	c #7FAC80",
"!+	c #80AC7F",
"~+	c #5F805F",
"{+	c #000101",
"]+	c #678B67",
"^+	c #7FAC7F",
"/+	c #80AC80",
"(+	c #7EA97E",
"_+	c #111711",
":+	c #2C3C2D",
"<+	c #7FAB7F",
"[+	c #2C3B2C",
"}+	c #7EAA7E",
"|+	c #79A47A",
"1+	c #608261",
"2+	c #475F47",
"3+	c #526F52",
"4+	c #AAE0A4",
"5+	c #9FD29A",
"6+	c #8AB785",
"7+	c #82AC7F",
"8+	c #82AB7D",
"9+	c #82AC7E",
"0+	c #82AC7D",
"a+	c #81AB7E",
"b+	c #273325",
"c+	c #212D20",
"d+	c #81AC7E",
"e+	c #81AC7D",
"f+	c #5B7858",
"g+	c #070A07",
"h+	c #7AA076",
"i+	c #82AB7E",
"j+	c #79A176",
"k+	c #5B7958",
"l+	c #82AA7E",
"m+	c #7FA77A",
"n+	c #6A8D66",
"o+	c #465C44",
"p+	c #475D44",
"q+	c #ADE1A1",
"r+	c #9BC88F",
"s+	c #88B17F",
"t+	c #84AC7C",
"u+	c #85AB7C",
"v+	c #85AC7B",
"w+	c #84AB7B",
"x+	c #84AC7B",
"y+	c #6E9068",
"z+	c #020201",
"A+	c #5D7957",
"B+	c #85AC7C",
"C+	c #394A35",
"D+	c #394B36",
"E+	c #84AB7C",
"F+	c #85AB7B",
"G+	c #82A87A",
"H+	c #76996E",
"I+	c #556D4F",
"J+	c #495E44",
"K+	c #B3E3A1",
"L+	c #AEDC9C",
"M+	c #97C087",
"N+	c #89AD7B",
"O+	c #87AB79",
"P+	c #87AC79",
"Q+	c #88AC79",
"R+	c #374630",
"S+	c #151B13",
"T+	c #85A977",
"U+	c #1C2319",
"V+	c #617A56",
"W+	c #88AB79",
"X+	c #5F7A55",
"Y+	c #1C2419",
"Z+	c #87AA79",
"`+	c #80A473",
" @	c #65805A",
".@	c #495D41",
"+@	c #6E8C62",
"@@	c #AFDA96",
"#@	c #A7D08F",
"$@	c #92B67E",
"%@	c #8BAC77",
"&@	c #8AAC76",
"*@	c #8AAC77",
"=@	c #89AC77",
"-@	c #89AC76",
";@	c #8AAB76",
">@	c #7D9C6C",
",@	c #060805",
"'@	c #516546",
")@	c #8AAB77",
"!@	c #89AB77",
"~@	c #0E110C",
"{@	c #7B9A6A",
"]@	c #89AB76",
"^@	c #7B9969",
"/@	c #0E120C",
"(@	c #86A774",
"_@	c #6B865C",
":@	c #415138",
"<@	c #607752",
"[@	c #AED48F",
"}@	c #A3C786",
"|@	c #90B178",
"1@	c #8DAC74",
"2@	c #8DAC75",
"3@	c #8CAC74",
"4@	c #8CAC75",
"5@	c #47583C",
"6@	c #0C0E0A",
"7@	c #85A36E",
"8@	c #040503",
"9@	c #87A670",
"0@	c #8DAB74",
"a@	c #8CAB74",
"b@	c #87A56F",
"c@	c #89A771",
"d@	c #6D865A",
"e@	c #3D4A32",
"f@	c #596D49",
"g@	c #AFD38C",
"h@	c #A5C684",
"i@	c #92B075",
"j@	c #8FAC72",
"k@	c #89A56D",
"l@	c #0F120C",
"m@	c #445236",
"n@	c #8AA66E",
"o@	c #050604",
"p@	c #8BA76F",
"q@	c #6F8558",
"r@	c #3C4830",
"s@	c #596B47",
"t@	c #B2D289",
"u@	c #A7C581",
"v@	c #96B073",
"w@	c #91AB70",
"x@	c #92AC6F",
"y@	c #92AD70",
"z@	c #92AC70",
"A@	c #91AC70",
"B@	c #5A6B44",
"C@	c #050603",
"D@	c #819863",
"E@	c #91AC6F",
"F@	c #0E100A",
"G@	c #839A64",
"H@	c #92AD6F",
"I@	c #91AD70",
"J@	c #829963",
"K@	c #0F120B",
"L@	c #91AD6F",
"M@	c #8CA66D",
"N@	c #708455",
"O@	c #3D472E",
"P@	c #5A6A44",
"Q@	c #AECA80",
"R@	c #A6C17A",
"S@	c #98B071",
"T@	c #94AC6D",
"U@	c #94AC6E",
"V@	c #95AC6E",
"W@	c #94AD6E",
"X@	c #94AD6D",
"Y@	c #92AA6D",
"Z@	c #1A1F13",
"`@	c #353F27",
" #	c #95AC6D",
".#	c #1E2316",
"+#	c #697A4E",
"@#	c #697A4D",
"##	c #1F2417",
"$#	c #93AB6D",
"%#	c #8AA166",
"&#	c #67764B",
"*#	c #374028",
"=#	c #566440",
"-#	c #A4BB74",
";#	c #A2B974",
">#	c #9BB16E",
",#	c #97AD6B",
"'#	c #97AC6B",
")#	c #96AC6B",
"!#	c #96AD6B",
"~#	c #97AC6C",
"{#	c #6D7D4D",
"]#	c #798B56",
"^#	c #414A2E",
"/#	c #424B2E",
"(#	c #96AC6C",
"_#	c #95A96A",
":#	c #82945C",
"<#	c #515D3A",
"[#	c #2C321F",
"}#	c #505C39",
"|#	c #A5BA72",
"1#	c #A7BC73",
"2#	c #A3B770",
"3#	c #9AAD69",
"4#	c #98AC69",
"5#	c #9AAC69",
"6#	c #99AD69",
"7#	c #9AAC68",
"8#	c #99AC69",
"9#	c #99AC68",
"0#	c #2A301D",
"a#	c #272B1A",
"b#	c #9AAD68",
"c#	c #99AD68",
"d#	c #6A7848",
"e#	c #090A06",
"f#	c #91A263",
"g#	c #90A162",
"h#	c #6C7849",
"i#	c #95A766",
"j#	c #7A8853",
"k#	c #42492D",
"l#	c #2D321E",
"m#	c #5A653E",
"n#	c #AFC173",
"o#	c #AABC6F",
"p#	c #9FAF68",
"q#	c #9CAD67",
"r#	c #9DAC66",
"s#	c #9CAD66",
"t#	c #9CAC67",
"u#	c #9CAC66",
"v#	c #808D54",
"w#	c #010100",
"x#	c #6D7847",
"y#	c #9BA964",
"z#	c #14160D",
"A#	c #383E24",
"B#	c #9DAD67",
"C#	c #373D24",
"D#	c #15170E",
"E#	c #9AAB66",
"F#	c #9DAC67",
"G#	c #9BAB66",
"H#	c #92A260",
"I#	c #6C7748",
"J#	c #383E25",
"K#	c #AAB86B",
"L#	c #A9B76A",
"M#	c #A3B167",
"N#	c #9FAD65",
"O#	c #9EAB64",
"P#	c #9FAD64",
"Q#	c #9EAC64",
"R#	c #9EAD65",
"S#	c #9FAC64",
"T#	c #3D4226",
"U#	c #181A0F",
"V#	c #636B3E",
"W#	c #414629",
"X#	c #9BA962",
"Y#	c #9EAD64",
"Z#	c #9BA862",
"`#	c #424729",
" $	c #646C3F",
".$	c #9FAC65",
"+$	c #9CA862",
"@$	c #879255",
"#$	c #545B35",
"$$	c #2E321D",
"%$	c #43492A",
"&$	c #A5B165",
"*$	c #A6B165",
"=$	c #A7B265",
"-$	c #A2AE63",
";$	c #A2AC62",
">$	c #A1AC62",
",$	c #A1AC61",
"'$	c #A1AD62",
")$	c #A2AD62",
"!$	c #A2AC61",
"~$	c #A1AD61",
"{$	c #909A58",
"]$	c #060603",
"^$	c #363A21",
"/$	c #16180D",
"($	c #5D6338",
"_$	c #899153",
":$	c #9AA45D",
"<$	c #9BA65E",
"[$	c #899253",
"}$	c #5E6439",
"|$	c #17180E",
"1$	c #373A21",
"2$	c #A0AB60",
"3$	c #96A15B",
"4$	c #727945",
"5$	c #3C4024",
"6$	c #2D301C",
"7$	c #9FA65C",
"8$	c #9FA75D",
"9$	c #A1A95F",
"0$	c #A3AC5F",
"a$	c #A3AC60",
"b$	c #A4AD5F",
"c$	c #A4AC5F",
"d$	c #A4AD60",
"e$	c #A4AC60",
"f$	c #50542E",
"g$	c #9DA65C",
"h$	c #32341D",
"i$	c #A2AB5E",
"j$	c #99A159",
"k$	c #7E8549",
"l$	c #4D522D",
"m$	c #2C2F1A",
"n$	c #3D4024",
"o$	c #949953",
"p$	c #8E9351",
"q$	c #979C54",
"r$	c #A3A95B",
"s$	c #A6AB5D",
"t$	c #A7AD5D",
"u$	c #A6AD5D",
"v$	c #A6AD5E",
"w$	c #A6AC5D",
"x$	c #A7AC5D",
"y$	c #A7AC5E",
"z$	c #9FA358",
"A$	c #0F0F08",
"B$	c #A6AC5E",
"C$	c #A5A95B",
"D$	c #555930",
"E$	c #080804",
"F$	c #55582F",
"G$	c #A5A95C",
"H$	c #A5AB5C",
"I$	c #9BA257",
"J$	c #818648",
"K$	c #51542D",
"L$	c #2E2F1A",
"M$	c #30321B",
"N$	c #8D8F4C",
"O$	c #8C8F4C",
"P$	c #9A9C53",
"Q$	c #A5A959",
"R$	c #A8AB5B",
"S$	c #A9AC5B",
"T$	c #A9AD5B",
"U$	c #AAAD5B",
"V$	c #A9AC5A",
"W$	c #AAAC5B",
"X$	c #AAAD5A",
"Y$	c #646736",
"Z$	c #A9AD5A",
"`$	c #9B9E52",
" %	c #606234",
".%	c #30311A",
"+%	c #15150B",
"@%	c #14150B",
"#%	c #2F3019",
"$%	c #606233",
"%%	c #9B9D53",
"&%	c #A7AB5A",
"*%	c #9EA255",
"=%	c #838646",
"-%	c #53542C",
";%	c #2F2F19",
">%	c #2E2F19",
",%	c #52542C",
"'%	c #8E8F49",
")%	c #8E8F4A",
"!%	c #9B9C4F",
"~%	c #A6A756",
"{%	c #A9AA58",
"]%	c #AAAC59",
"^%	c #AAAB59",
"/%	c #ACAD59",
"(%	c #ACAD58",
"_%	c #ACAC59",
":%	c #ACAC58",
"<%	c #ABAC59",
"[%	c #ABAD59",
"}%	c #ABAB58",
"|%	c #A8A957",
"1%	c #9FA052",
"2%	c #848544",
"3%	c #54542B",
"4%	c #2F3018",
"5%	c #2F2F18",
"6%	c #53532B",
"7%	c #918F47",
"8%	c #8C8A45",
"9%	c #929048",
"0%	c #9C9A4D",
"a%	c #A5A452",
"b%	c #A9A854",
"c%	c #ABA955",
"d%	c #ADAC57",
"e%	c #AEAB56",
"f%	c #AEAD56",
"g%	c #AFAD57",
"h%	c #AFAD56",
"i%	c #AFAC56",
"j%	c #AEAD57",
"k%	c #AEAC57",
"l%	c #AEAC56",
"m%	c #ACA955",
"n%	c #A9A855",
"o%	c #A3A251",
"p%	c #949349",
"q%	c #7B7A3D",
"r%	c #525229",
"s%	c #303018",
"t%	c #2F2F17",
"u%	c #545329",
"v%	c #898641",
"w%	c #777439",
"x%	c #7A773A",
"y%	c #878440",
"z%	c #918D45",
"A%	c #9D994B",
"B%	c #A8A450",
"C%	c #ACA852",
"D%	c #ACA752",
"E%	c #ACA851",
"F%	c #ACA751",
"G%	c #ADA752",
"H%	c #ABA752",
"I%	c #A5A24F",
"J%	c #999549",
"K%	c #8C8942",
"L%	c #7B783A",
"M%	c #5D5B2C",
"N%	c #42401F",
"O%	c #302F17",
"P%	c #333218",
"Q%	c #565429",
"R%	c #807B3A",
"S%	c #6D6A32",
"T%	c #635F2D",
"U%	c #625E2D",
"V%	c #736E34",
"W%	c #87823D",
"X%	c #8D8840",
"Y%	c #8C8740",
"Z%	c #8B863F",
"`%	c #8B853F",
" &	c #8A863F",
".&	c #8A853F",
"+&	c #7B7739",
"@&	c #605C2C",
"#&	c #4C4822",
"$&	c #403E1D",
"%&	c #353218",
"&&	c #323117",
"*&	c #43401E",
"=&	c #756F33",
"-&	c #645E2B",
";&	c #635E2B",
">&	c #625D2B",
",&	c #565225",
"'&	c #4E4A22",
")&	c #4D4921",
"!&	c #4D4922",
"~&	c #4D4821",
"{&	c #4C4821",
"]&	c #43401D",
"^&	c #363317",
"/&	c #353317",
"(&	c #423E1C",
"_&	c #968C3F",
":&	c #807836",
"<&	c #756E31",
"[&	c #736C30",
"}&	c #726B30",
"|&	c #6C652D",
"1&	c #635C29",
". . . . . . . . . . . . . . . . . . . . . . . . . . . . . . . . . . . . . . . . . . . . . . . . . . . . . . . . . . . . . . . . . . . . . . . . ",
". . . . . . . . . . . . . + @ # $ % & * $ = $ * & * $ - = $ & & & & - & - $ $ & $ & & = & - $ & $ $ * & $ & & - ; > , ' . . . . . . . . . . . . ",
". . . . . . . . . . ) ! ~ { ] ^ / ( ( ( _ : ( ( _ ( _ ( : < : ( : _ ( ( ( : [ _ : _ _ : [ _ / : ( ( _ : } _ } : | 1 2 3 4 5 6 . . . . . . . . . ",
". . . . . . . . 7 8 9 0 a b c d e e e e e e e e e e e f e e g e e e f e g e e e e e f e e e e f e e e e f e e e e e h i j k e l m . . . . . . . ",
". . . . . . . n o p q r s t u v w u v x x y v x x v x z x u u u x x u u u z u w x x w x x x x x x u u u u v A u z B u t C D E F G H . . . . . . ",
". . . . . . I J K L M N O P P N N Q Q Q Q R O O S O S N P O O Q Q Q S S S O O S O N S T U V W X Y W Z `  .S P O N S O N ..+.@.#.$.%.%.. . . . . ",
". . . . . &.*.=.-.;.>.,.'.).).!.!.Q Q Q Q ~.{.).!.!.!.).!.>.).Q Q Q !.).>.!.!.).).].^./.Q Q Q Q Q Q Q Q (._.:.!.!.!.,.>.!.!.<.[.}.|.1.2.. . . . ",
". . . . 3.4.5.6.7.8.9.9.8.0.8.a.9.Q Q Q Q Q b.9.8.8.a.9.c.a.8.Q Q Q d.c.c.a.8.d.e.f.Q Q Q Q Q Q Q Q Q Q Q Q f.g.d.c.d.9.c.9.c.h.i.j.k.l.m.. . . ",
". . . n.o.p.q.r.s.s.t.u.s.t.t.s.u.Q Q Q Q Q v.w.u.x.s.x.t.s.t.Q Q Q s.t.x.x.u.t.y.Q Q Q z.A.B.C.D.E.F.G.Q Q Q H.x.t.x.s.t.s.t.u.I.u.J.K.L.M.. . ",
". . . N.O.P.Q.R.R.R.S.S.R.S.S.T.S.Q Q Q U.Q Q V.T.R.W.W.X.Y.R.Q Q Q Y.Y.R.S.R.Z.Q Q Q `. +S.S.Y.T.Y.X..+++Q Q Q @+R.Y.Y.X.T.#+R.W.R.$+%+&+*+. . ",
". . =+-+;+>+,+'+)+'+'+)+)+!+)+)+)+Q Q Q ~+Q Q {+]+)+'+'+^+)+'+Q Q Q '+)+/+'+(+_+Q Q :+<+,+,+)+,+)+)+,+/+)+[+Q Q G.}+)+)+)+/+/+!+/+)+'+|+1+2+3+. ",
". . 4+5+6+7+8+9+9+0+0+9+0+0+0+a+0+Q Q Q 0+b+Q Q c+9+9+8+9+0+0+Q Q Q d+9+e+0+f+Q Q g+h+9+0+0+9+d+9+0+9+i+9+j+g+Q Q k+9+0+i+e+0+0+i+9+l+m+n+o+p+. ",
". . q+r+s+t+u+v+w+x+x+t+w+v+v+v+x+Q Q Q v+y+z+Q Q A+x+w+x+w+B+Q Q Q u+v+x+x+C+Q Q C+w+x+x+v+x+B+v+x+v+w+x+x+C+Q Q D+E+v+x+x+F+x+v+t+v+G+H+I+J+. ",
". K+L+M+N+O+O+P+P+P+O+P+P+P+P+O+P+Q Q Q Q+P+R+Q Q S+T+P+P+P+P+Q Q Q P+O+P+P+U+Q Q V+O+P+P+P+P+O+W+P+P+O+P+P+X+Q Q Y+P+P+O+P+Q+P+P+P+W+Z+`+ @.@+@",
". @@#@$@%@&@&@&@&@*@*@=@-@=@&@;@&@Q Q Q &@=@>@,@Q Q '@)@!@=@-@Q Q Q -@*@&@*@~@Q Q {@-@*@-@*@*@&@&@&@*@]@-@;@^@Q Q /@*@*@&@&@&@=@-@)@&@]@(@_@:@<@",
". [@}@|@1@2@3@3@4@4@2@3@4@3@2@3@3@Q Q Q 3@1@3@5@Q Q 6@7@4@3@1@Q Q Q 2@3@4@3@8@Q Q 9@1@3@4@1@3@4@0@1@4@a@4@1@b@Q Q v.3@1@3@3@3@2@3@1@4@1@c@d@e@f@",
". g@h@i@j@j@j@j@j@j@j@j@j@j@j@j@j@Q Q Q j@j@j@k@l@Q Q m@j@j@j@Q Q Q j@j@j@j@8@Q Q n@j@j@j@j@j@j@j@j@j@j@j@j@k@Q Q o@j@j@j@j@j@j@j@j@j@j@p@q@r@s@",
". t@u@v@w@x@y@z@z@z@A@z@x@x@z@A@x@Q Q Q x@x@z@z@B@Q Q C@D@z@E@Q Q Q A@A@E@A@F@Q Q G@z@z@A@x@x@H@E@A@x@I@I@z@J@Q Q K@A@I@z@A@H@L@L@E@z@y@M@N@O@P@",
". Q@R@S@T@U@T@T@U@T@V@T@T@T@W@X@U@Q Q Q U@T@T@U@Y@Z@Q Q `@V@ #Q Q Q U@T@T@T@.#Q Q +#V@ #W@W@T@ #T@T@U@ #U@T@@#Q Q ##T@ #V@ # #V@U@T@U@$#%#&#*#=#",
". -#;#>#,#'#)#,#,#,#)#)#'#,#'#'#'#Q Q Q ,#'#!#~#,#{#Q Q Q ]#!#Q Q Q )#'#!#'#^#Q Q /#'#)#,#)#'#'#!#~#'#'#'#(#^#Q Q /#'#)#,#'#'#'#,#,#,#_#:#<#[#}#",
". |#1#2#3#4#5#6#7#5#6#8#8#3#9#5#8#Q Q Q 7#5#3#7#6#3#0#Q Q a#7#Q Q Q b#8#c#7#d#Q Q e#f#5#8#7#3#7#c#5#5#7#5#g#e#Q Q h#3#c#b#9#8#8#8#5#8#i#j#k#l#m#",
". . n#o#p#q#r#s#t#u#r#t#u#s#t#u#u#Q Q Q u#u#t#u#u#s#v#w#Q Q x#Q Q Q s#r#u#s#y#z#Q Q A#u#s#u#q#t#q#u#q#B#s#C#Q Q D#E#q#u#s#s#s#t#u#F#G#H#I#J#J#. ",
". . K#L#M#N#O#P#P#P#Q#R#S#Q#P#P#S#Q Q Q S#S#S#Q#S#Q#S#T#Q Q U#Q Q Q S#S#S#P#P#V#Q Q Q W#X#Y#Q#S#S#S#P#Z#`#Q Q Q  $Q#S#P#S#S#S#.$Y#S#+$@$#$$$%$. ",
". . &$*$=$-$;$;$>$,$'$>$>$'$>$)$'$Q Q Q )$,$,$!$;$>$~${$]$Q Q Q Q Q ~$)$~$;$!$;$^$Q Q Q /$($_$:$<$[$}$|$Q Q Q 1$)$;$;$;$'$)$'$)$;$2$3$4$5$6$. . ",
". . . 7$8$9$0$a$b$b$b$b$c$d$b$e$d$Q Q Q c$c$c$e$e$d$b$d$f$Q Q Q Q Q e$c$b$c$c$d$g$h$Q Q Q Q Q Q Q Q Q Q Q Q h$g$d$d$b$e$e$c$d$c$i$j$k$l$m$n$. . ",
". . . o$p$q$r$s$s$t$u$t$v$u$t$w$x$Q Q Q y$x$w$t$x$x$w$t$z$A$Q Q Q Q t$t$u$w$u$B$w$C$D$E$Q Q Q Q Q Q Q Q E$F$G$u$w$t$w$t$t$B$t$H$I$J$K$L$M$. . . ",
". . . . N$O$P$Q$R$S$S$T$S$U$V$T$T$Q Q Q W$S$T$T$X$S$S$W$W$Y$Q Q Q Q S$Z$T$T$U$X$T$W$S$`$ %.%+%]$]$@%#%$%%%U$S$T$T$U$S$W$W$S$&%*%=%-%;%>%,%. . . ",
". . . . . '%)%!%~%{%]%^%/%(%/%/%/%_%/%:%_%/%(%(%(%/%<%/%:%(%/%/%(%/%/%<%/%(%/%(%:%_%/%:%[%/%/%/%/%[%(%/%(%:%/%(%/%/%/%(%}%|%1%2%3%4%5%6%. . . . ",
". . . . . . 7%8%9%0%a%b%c%d%e%f%g%g%g%f%h%h%i%j%h%h%h%h%i%h%k%f%f%h%f%l%l%h%h%h%f%h%h%f%g%g%h%h%i%l%g%h%f%g%h%l%k%l%m%n%o%p%q%r%s%t%u%. . . . . ",
". . . . . . . v%w%x%y%z%A%B%C%C%C%C%D%D%C%C%C%C%C%E%C%D%C%C%C%C%D%C%D%C%C%C%C%D%C%C%C%F%E%E%E%C%C%G%D%C%C%D%C%C%H%I%J%K%L%M%N%O%P%Q%. . . . . . ",
". . . . . . . . R%S%T%U%V%W%X%Y%Z%`%Z% & & &Z%Z%Z%Z%Z%Z% &Z% &Z%.&Z%`%Z%Z%Z%Z%Z%Z% &Z%Z% &Z%Z%Z%Z% &Z%`% &Z%Z%Z%.&+&@&#&$&%&&&*&. . . . . . . . ",
". . . . . . . . . . =&-&;&>&,&'&)&)&!&!&!&)&)&)&!&!&!&)&!&)&)&)&)&)&)&)&!&)&)&!&)&!&)&)&)&)&!&!&)&!&!&)&~&)&)&)&{&]&^&/&(&!&. . . . . . . . . . ",
". . . . . . . . . . . . . _&:&<&[&[&[&[&[&[&[&[&[&[&[&[&[&[&[&[&[&[&[&[&[&[&[&[&[&[&[&[&[&[&[&[&[&[&[&[&[&[&[&[&}&|&1&|&. . . . . . . . . . . . "};
