/* XPM */
static char * D:\My Games\Snake\Snake\pause_button_clicked_xpm[] = {
"28 28 2 1",
" 	c #00FF00",
".	c #FF0000",
"                            ",
"                            ",
"                            ",
"     ......     ......      ",
"     ......     ......      ",
"     ......     ......      ",
"     ......     ......      ",
"     ......     ......      ",
"     ......     ......      ",
"     ......     ......      ",
"     ......     ......      ",
"     ......     ......      ",
"     ......     ......      ",
"     ......     ......      ",
"     ......     ......      ",
"     ......     ......      ",
"     ......     ......      ",
"     ......     ......      ",
"     ......     ......      ",
"     ......     ......      ",
"     ......     ......      ",
"     ......     ......      ",
"     ......     ......      ",
"     ......     ......      ",
"     ......     ......      ",
"                            ",
"                            ",
"                            "};
