/* XPM */
static char * D:\My Games\Snake\Snake\play_button_clicked_xpm[] = {
"28 28 3 1",
" 	c #00FF00",
".	c #000000",
"+	c #FF0000",
"                            ",
"      .                     ",
"      ...                   ",
"      .++.                  ",
"      .+++..                ",
"      .+++++.               ",
"      .++++++..             ",
"      .++++++++..           ",
"      .++++++++++.          ",
"      .+++++++++++..        ",
"      .+++++++++++++.       ",
"      .++++++++++++++..     ",
"      .++++++++++++++++.    ",
"      .++++++++++++++++.    ",
"      .+++++++++++++++.     ",
"      .+++++++++++++..      ",
"      .++++++++++++.        ",
"      .+++++++++++.         ",
"      .++++++++++.          ",
"      .+++++++++.           ",
"      .+++++++..            ",
"      .++++++.              ",
"      .+++++.               ",
"      .++++.                ",
"      .++..                 ",
"      .+.                   ",
"      ..                    ",
"                            "};
