/* XPM */
static char * D:\My Games\Snake\Snake\sound_button_rest_xpm[] = {
"28 28 2 1",
" 	c #00FF00",
".	c #0041FF",
"                            ",
"                            ",
"                            ",
"                            ",
"                   .        ",
"                  ..        ",
"                 ...        ",
"                ....        ",
"               .....        ",
"              ......     .  ",
"   ................. .   .  ",
"   .................  . .   ",
"   .................  . .   ",
"   .................   .    ",
"   .................   .    ",
"   .................   ..   ",
"   .................  . .   ",
"   .................  .  .  ",
"              ...... .   .  ",
"               ..... .    . ",
"                ....        ",
"                 ...        ",
"                  ..        ",
"                   .        ",
"                            ",
"                            ",
"                            ",
"                            "};
