/* XPM */
static char * D:\My Games\Snake\Snake\volume_button_xpm[] = {
"10 20 147 2",
"  	c #AAC1E1",
". 	c #A9C1E1",
"+ 	c #ACC2E2",
"@ 	c #ADC3E2",
"# 	c #AFC5E2",
"$ 	c #B1C6E4",
"% 	c #B2C7E4",
"& 	c #B4C8E5",
"* 	c #B5CAE5",
"= 	c #AAC2E2",
"- 	c #ADC3E3",
"; 	c #AFC5E3",
"> 	c #B1C7E4",
", 	c #B2C8E4",
"' 	c #B7CBE6",
") 	c #BACCE7",
"! 	c #AEC4E3",
"~ 	c #B0C5E3",
"{ 	c #B3C8E5",
"] 	c #B7CAE5",
"^ 	c #B8CBE6",
"/ 	c #BACDE6",
"( 	c #BBCEE7",
"_ 	c #BDCFE8",
": 	c #B4C8E4",
"< 	c #B6CAE5",
"[ 	c #B9CCE7",
"} 	c #BACEE7",
"| 	c #BCCEE7",
"1 	c #C0D1E9",
"2 	c #C1D2EA",
"3 	c #B6CAE6",
"4 	c #B9CDE7",
"5 	c #BBCDE7",
"6 	c #BCCFE8",
"7 	c #BED0E8",
"8 	c #C2D3EA",
"9 	c #C3D4EA",
"0 	c #C5D5EB",
"a 	c #B9CDE6",
"b 	c #BFD0E8",
"c 	c #C2D3E9",
"d 	c #C4D4EA",
"e 	c #C6D6EB",
"f 	c #C7D6EB",
"g 	c #C8D8EC",
"h 	c #C1D2E9",
"i 	c #C4D5EA",
"j 	c #C6D5EB",
"k 	c #C8D7EC",
"l 	c #C9D8EC",
"m 	c #CBDAEC",
"n 	c #CCDBED",
"o 	c #C2D2E9",
"p 	c #C3D3EA",
"q 	c #CAD8EC",
"r 	c #CCDAED",
"s 	c #CDDBEE",
"t 	c #CFDCEE",
"u 	c #D1DEEF",
"v 	c #CAD9EC",
"w 	c #CEDBEE",
"x 	c #CFDDEE",
"y 	c #D3DFEF",
"z 	c #D4E0F0",
"A 	c #CBD9EC",
"B 	c #CDDAEE",
"C 	c #D0DDEF",
"D 	c #D2DEEF",
"E 	c #D3DFF0",
"F 	c #D5E1F1",
"G 	c #D7E2F1",
"H 	c #D9E3F1",
"I 	c #CDDBED",
"J 	c #D5E1F0",
"K 	c #D8E2F1",
"L 	c #D9E4F2",
"M 	c #DAE4F3",
"N 	c #DCE6F3",
"O 	c #D2DFF0",
"P 	c #D6E2F0",
"Q 	c #D7E3F1",
"R 	c #DAE4F2",
"S 	c #DBE6F2",
"T 	c #DDE6F3",
"U 	c #DFE8F3",
"V 	c #E0E9F4",
"W 	c #D7E1F0",
"X 	c #D8E3F1",
"Y 	c #DAE5F2",
"Z 	c #DCE5F3",
"` 	c #DFE7F4",
" .	c #E1EAF4",
"..	c #E2EBF4",
"+.	c #E5EBF6",
"@.	c #D9E4F1",
"#.	c #DBE5F2",
"$.	c #DCE6F2",
"%.	c #DEE7F3",
"&.	c #E1EAF5",
"*.	c #E3EBF5",
"=.	c #E5ECF6",
"-.	c #E6EDF6",
";.	c #E8EFF7",
">.	c #E0E9F5",
",.	c #E2EAF5",
"'.	c #E4ECF5",
").	c #E6EEF7",
"!.	c #EAF0F8",
"~.	c #ECF1F9",
"{.	c #E1E9F4",
"].	c #E4EBF5",
"^.	c #E6ECF6",
"/.	c #E7EDF7",
"(.	c #E9EFF7",
"_.	c #EBF0F8",
":.	c #ECF2F9",
"<.	c #EEF3F9",
"[.	c #F0F4FA",
"}.	c #E8EEF7",
"|.	c #E9EFF8",
"1.	c #EBF0F9",
"2.	c #EDF2F9",
"3.	c #EFF3F9",
"4.	c #F0F5FA",
"5.	c #F2F5FA",
"6.	c #F4F7FB",
"7.	c #E9EEF7",
"8.	c #ECF1F8",
"9.	c #EEF2F9",
"0.	c #F1F5FA",
"a.	c #F3F5FB",
"b.	c #F5F8FB",
"c.	c #F6F8FB",
"d.	c #F8FAFD",
"e.	c #F3F6FA",
"f.	c #F5F8FC",
"g.	c #F6F9FC",
"h.	c #FAFBFD",
"i.	c #FCFCFE",
"j.	c #F2F6FB",
"k.	c #F7FAFC",
"l.	c #F9FAFD",
"m.	c #FBFCFD",
"n.	c #FCFDFE",
"o.	c #FEFEFF",
"p.	c #FFFFFF",
"  .   + @ # $ % & * ",
"= + - ; > , & * ' ) ",
"! ~ > { * ] ^ / ( _ ",
"% : < ' [ } | _ 1 2 ",
"3 ' 4 5 6 7 1 8 9 0 ",
"a | _ b 1 c d e f g ",
"7 b h c i j k l m n ",
"o p 0 f k q r s t u ",
"0 f l v r w x u y z ",
"l A B w C D E F G H ",
"I t u D z J K L M N ",
"u O z P Q R S T U V ",
"J W X Y Z T `  ...+.",
"@.#.$.%.V &.*.=.-.;.",
"N U >.,.'.=.).;.!.~.",
"{.,.].^./.(._.:.<.[.",
"=.-.}.|.1.2.3.4.5.6.",
"7.!.8.9.3.0.a.b.c.d.",
"8.<.[.0.e.f.g.d.h.i.",
"[.j.6.b.k.l.m.n.o.p."};
