/* XPM */
static char * D:\My Games\Snake\Snake\volume_button_clicked_xpm[] = {
"10 20 164 2",
"  	c #1F79F3",
". 	c #1E78F3",
"+ 	c #1E79F3",
"@ 	c #1F78F3",
"# 	c #227BF2",
"$ 	c #277EF2",
"% 	c #297FF2",
"& 	c #2E82F1",
"* 	c #3184F1",
"= 	c #237BF3",
"- 	c #277DF2",
"; 	c #2A7FF1",
"> 	c #2E82F2",
", 	c #3284F1",
"' 	c #3686F0",
") 	c #3A89F1",
"! 	c #207AF3",
"~ 	c #2B80F2",
"{ 	c #2F82F1",
"] 	c #3687F0",
"^ 	c #3989F1",
"/ 	c #3D8BF0",
"( 	c #418DF0",
"_ 	c #287EF2",
": 	c #3385F1",
"< 	c #3687F1",
"[ 	c #3A89F0",
"} 	c #3E8BF0",
"| 	c #428EF0",
"1 	c #4590F0",
"2 	c #4992EF",
"3 	c #3083F1",
"4 	c #3787F0",
"5 	c #3B89F0",
"6 	c #3F8CEF",
"7 	c #428EEF",
"8 	c #4590EF",
"9 	c #4A92EF",
"0 	c #4D94EE",
"a 	c #5197EE",
"b 	c #3787F1",
"c 	c #3B8AF1",
"d 	c #3F8CF0",
"e 	c #4690EF",
"f 	c #4A93EE",
"g 	c #4E94EF",
"h 	c #5599EE",
"i 	c #599BED",
"j 	c #438EEF",
"k 	c #4791EF",
"l 	c #4B93EF",
"m 	c #4E95EF",
"n 	c #5297EE",
"o 	c #569AEE",
"p 	c #5A9BED",
"q 	c #5D9DED",
"r 	c #61A0EC",
"s 	c #4891EF",
"t 	c #5397EE",
"u 	c #569AED",
"v 	c #5D9EED",
"w 	c #65A3EC",
"x 	c #68A5EC",
"y 	c #4F96EE",
"z 	c #579AED",
"A 	c #5A9CED",
"B 	c #5E9EED",
"C 	c #62A0ED",
"D 	c #66A3ED",
"E 	c #69A5EB",
"F 	c #6DA7EB",
"G 	c #71A9EB",
"H 	c #579AEE",
"I 	c #5B9CED",
"J 	c #5F9FED",
"K 	c #62A1EC",
"L 	c #66A3EC",
"M 	c #6AA5EC",
"N 	c #6EA7EC",
"O 	c #75ACEB",
"P 	c #79AEEA",
"Q 	c #63A1EC",
"R 	c #66A4EC",
"S 	c #6AA6EC",
"T 	c #6EA8EC",
"U 	c #72AAEB",
"V 	c #7DB0EA",
"W 	c #81B3E9",
"X 	c #67A3EC",
"Y 	c #6BA6EC",
"Z 	c #6FA8EB",
"` 	c #73AAEB",
" .	c #76ADEB",
"..	c #7DB1EA",
"+.	c #81B3EA",
"@.	c #85B5E9",
"#.	c #89B7E9",
"$.	c #73ABEB",
"%.	c #76ACEA",
"&.	c #7AAFEA",
"*.	c #7EB1E9",
"=.	c #81B4E9",
"-.	c #85B6E9",
";.	c #89B8E9",
">.	c #8CBAE8",
",.	c #90BDE8",
"'.	c #7BB0EA",
").	c #7EB2EA",
"!.	c #82B4E9",
"~.	c #86B6E9",
"{.	c #8AB8E8",
"].	c #8EBAE9",
"^.	c #91BCE8",
"/.	c #95BFE7",
"(.	c #99C1E7",
"_.	c #7FB2EA",
":.	c #83B3E9",
"<.	c #86B7E9",
"[.	c #8EBBE8",
"}.	c #91BDE8",
"|.	c #96BFE7",
"1.	c #98C2E7",
"2.	c #9DC3E6",
"3.	c #A0C5E6",
"4.	c #8AB9E9",
"5.	c #99C2E7",
"6.	c #9DC4E7",
"7.	c #A1C6E6",
"8.	c #A5C8E6",
"9.	c #A8CAE6",
"0.	c #92BDE8",
"a.	c #96BFE8",
"b.	c #9AC1E7",
"c.	c #9EC4E7",
"d.	c #A1C7E6",
"e.	c #A5C9E6",
"f.	c #A9CBE6",
"g.	c #ADCDE5",
"h.	c #B0CFE5",
"i.	c #96C0E7",
"j.	c #9AC2E7",
"k.	c #A2C7E6",
"l.	c #A6C9E5",
"m.	c #A9CBE5",
"n.	c #B0D0E5",
"o.	c #B4D2E5",
"p.	c #B8D4E4",
"q.	c #9EC4E6",
"r.	c #A6C9E6",
"s.	c #A9CCE5",
"t.	c #ADCEE5",
"u.	c #B1D0E5",
"v.	c #B5D2E4",
"w.	c #B9D4E4",
"x.	c #BCD6E3",
"y.	c #C0D9E4",
"z.	c #A7C9E6",
"A.	c #AACCE5",
"B.	c #B2D0E4",
"C.	c #B6D2E4",
"D.	c #B9D5E4",
"E.	c #BDD7E4",
"F.	c #C1D9E3",
"G.	c #C3DBE3",
"  . + @   # $ % & * ",
"@ @   = - ; > , ' ) ",
"! = $ ~ { , ] ^ / ( ",
"_ ~ { : < [ } | 1 2 ",
"3 : 4 5 6 7 8 9 0 a ",
"b c d | e f g a h i ",
"d j k l m n o p q r ",
"s l m t u p v r w x ",
"y t z A B C D E F G ",
"H I J K L M N G O P ",
"J Q R S T U O P V W ",
"X Y Z `  .P ..+.@.#.",
"Z $.%.&.*.=.-.;.>.,.",
" .'.).!.~.{.].^./.(.",
"_.:.<.;.[.}.|.1.2.3.",
"~.4.[.}.|.5.6.7.8.9.",
"[.0.a.b.c.d.e.f.g.h.",
"i.j.c.k.l.m.g.n.o.p.",
"q.k.r.s.t.u.v.w.x.y.",
"z.A.t.B.C.D.E.F.G.G."};
