/* XPM */
static char * hello_xpm[] = {
"50 50 329 2",
"  	c #FFFFFF",
". 	c #FFFBFC",
"+ 	c #FFF5F7",
"@ 	c #FFECF0",
"# 	c #FFE5EB",
"$ 	c #FFD2DD",
"% 	c #FFBCCD",
"& 	c #FFB0C4",
"* 	c #FFAABF",
"= 	c #FFC6D4",
"- 	c #FFE2E9",
"; 	c #FFEFF3",
"> 	c #FFD9E2",
", 	c #FFB6C8",
"' 	c #FF93AE",
") 	c #FF7195",
"! 	c #FF5E87",
"~ 	c #FF5580",
"{ 	c #FF8DAA",
"] 	c #FFF2F5",
"^ 	c #FFA3BA",
"/ 	c #FF4B79",
"( 	c #FF2F64",
"_ 	c #FF225A",
": 	c #FF1C56",
"< 	c #FF0041",
"[ 	c #FF386B",
"} 	c #FFDFE7",
"| 	c #FFA9BE",
"1 	c #FF6489",
"2 	c #FF3564",
"3 	c #FF194F",
"4 	c #FF0945",
"5 	c #FF0342",
"6 	c #FF0039",
"7 	c #FF0032",
"8 	c #FF1C47",
"9 	c #FF5579",
"0 	c #FFADC1",
"a 	c #FF2F5C",
"b 	c #FF0F40",
"c 	c #FF0337",
"d 	c #FF003E",
"e 	c #FF0024",
"f 	c #FF0F34",
"g 	c #FF2F55",
"h 	c #FF6486",
"i 	c #FF7D9E",
"j 	c #FF2C5C",
"k 	c #FF0F3D",
"l 	c #FF032A",
"m 	c #FF0028",
"n 	c #FF003C",
"o 	c #FF002D",
"p 	c #FF0020",
"q 	c #FF0322",
"r 	c #FF0F39",
"s 	c #FF3562",
"t 	c #FF3B6D",
"u 	c #FF033C",
"v 	c #FF032F",
"w 	c #FFFF7D",
"x 	c #FF003A",
"y 	c #FF002B",
"z 	c #FF001C",
"A 	c #FF194C",
"B 	c #FF99B3",
"C 	c #FF0A40",
"D 	c #FF0038",
"E 	c #FF002C",
"F 	c #FF80A0",
"G 	c #FFCCD9",
"H 	c #FF2259",
"I 	c #FF033D",
"J 	c #FF0036",
"K 	c #FF0037",
"L 	c #FF0035",
"M 	c #FF002E",
"N 	c #FF1953",
"O 	c #FF6E93",
"P 	c #FFC0D0",
"Q 	c #FF1C55",
"R 	c #FF003D",
"S 	c #FF0030",
"T 	c #FF002F",
"U 	c #FF0948",
"V 	c #FFB3C6",
"W 	c #FF003F",
"X 	c #FF003B",
"Y 	c #FF0034",
"Z 	c #FF0029",
"` 	c #FF0022",
" .	c #FF0027",
"..	c #FF0031",
"+.	c #FF0040",
"@.	c #FEE3EA",
"#.	c #FEADC2",
"$.	c #FD5B85",
"%.	c #FD225B",
"&.	c #FD0344",
"*.	c #FE0141",
"=.	c #FE003F",
"-.	c #FF0021",
";.	c #FF001F",
">.	c #FFFEFE",
",.	c #FEE9EF",
"'.	c #FCBACE",
").	c #F97098",
"!.	c #F6316B",
"~.	c #F90C4E",
"{.	c #FC0244",
"].	c #FE0041",
"^.	c #FF0119",
"/.	c #FF0019",
"(.	c #FEF3F6",
"_.	c #F7CFE0",
":.	c #F090B7",
"<.	c #EA4A87",
"[.	c #F0195E",
"}.	c #F70449",
"|.	c #FF063F",
"1.	c #FF0629",
"2.	c #FD0618",
"3.	c #FF0018",
"4.	c #F2E2F3",
"5.	c #E3ADD6",
"6.	c #D463AA",
"7.	c #DD2979",
"8.	c #E70B5A",
"9.	c #F2064F",
"0.	c #F40E4A",
"a.	c #F81534",
"b.	c #FB0F1E",
"c.	c #FE0910",
"d.	c #FF0311",
"e.	c #FF001E",
"f.	c #FCFCFF",
"g.	c #E9E6FC",
"h.	c #D0B7EB",
"i.	c #B970C8",
"j.	c #BD399C",
"k.	c #CA197B",
"l.	c #D9126B",
"m.	c #E3165C",
"n.	c #F01D44",
"o.	c #FA1E28",
"p.	c #FD0E1F",
"q.	c #FF061F",
"r.	c #FF012A",
"s.	c #FF0339",
"t.	c #FF0340",
"u.	c #FF1F58",
"v.	c #F8F8FF",
"w.	c #DFDFFF",
"x.	c #B9AFF7",
"y.	c #9973E2",
"z.	c #9347C6",
"A.	c #A031AC",
"B.	c #B32B99",
"C.	c #CC257F",
"D.	c #E5225D",
"E.	c #F81C3D",
"F.	c #FC1737",
"G.	c #FF1037",
"H.	c #FF0E3F",
"I.	c #FF1A50",
"J.	c #FF3265",
"K.	c #FF648C",
"L.	c #F2F2FF",
"M.	c #D2D2FF",
"N.	c #A29FFC",
"O.	c #7E6EF3",
"P.	c #6F50E7",
"Q.	c #7C47D6",
"R.	c #9543C1",
"S.	c #BD3C9E",
"T.	c #E13178",
"U.	c #F82B5C",
"V.	c #FF2553",
"W.	c #FF2D59",
"X.	c #FF3363",
"Y.	c #FF527D",
"Z.	c #FF7A9C",
"`.	c #FFB9CB",
" +	c #EEEEFF",
".+	c #CACAFF",
"++	c #9393FF",
"@+	c #6D6AFC",
"#+	c #5B54FA",
"$+	c #6555F2",
"%+	c #805BE2",
"&+	c #AE60C3",
"*+	c #DB5DA0",
"=+	c #F65989",
"-+	c #FF7497",
";+	c #FF9AB4",
">+	c #FFC9D6",
",+	c #EAEAFF",
"'+	c #C5C5FF",
")+	c #8E8EFF",
"!+	c #6868FF",
"~+	c #5555FF",
"{+	c #5B58FC",
"]+	c #7464F3",
"^+	c #A07AE2",
"/+	c #D293CF",
"(+	c #F2A3C4",
"_+	c #FEFEFF",
":+	c #F7F7FF",
"<+	c #C3C3FF",
"[+	c #8F8FFF",
"}+	c #6A6AFF",
"|+	c #5757FF",
"1+	c #6B68FC",
"2+	c #938AF7",
"3+	c #CAB7F0",
"4+	c #EED4EC",
"5+	c #FBFBFF",
"6+	c #FDFDFF",
"7+	c #F0F0FF",
"8+	c #9191FF",
"9+	c #6D6DFF",
"0+	c #5A5AFF",
"a+	c #5656FF",
"b+	c #6969FF",
"c+	c #C7C7FF",
"d+	c #ECECFF",
"e+	c #D6D6FF",
"f+	c #D0D0FF",
"g+	c #CECEFF",
"h+	c #CCCCFF",
"i+	c #C6C6FF",
"j+	c #D9D9FF",
"k+	c #E3E3FF",
"l+	c #E7E7FF",
"m+	c #C1C1FF",
"n+	c #6B6BFF",
"o+	c #5D5DFF",
"p+	c #5858FF",
"q+	c #6C6CFF",
"r+	c #C9C9FF",
"s+	c #EDEDFF",
"t+	c #B3B3FF",
"u+	c #A6A6FF",
"v+	c #9E9EFF",
"w+	c #9797FF",
"x+	c #8D8DFF",
"y+	c #A0A0FF",
"z+	c #F4F4FF",
"A+	c #BEBEFF",
"B+	c #6464FF",
"C+	c #F9F9FF",
"D+	c #ACACFF",
"E+	c #9B9BFF",
"F+	c #7878FF",
"G+	c #6767FF",
"H+	c #5B5BFF",
"I+	c #8484FF",
"J+	c #A9A9FF",
"K+	c #CFCFFF",
"L+	c #E8E8FF",
"M+	c #DEDEFF",
"N+	c #B8B8FF",
"O+	c #5959FF",
"P+	c #6F6FFF",
"Q+	c #9C9CFF",
"R+	c #A4A4FF",
"S+	c #9595FF",
"T+	c #8080FF",
"U+	c #7171FF",
"V+	c #9999FF",
"W+	c #C4C4FF",
"X+	c #E1E1FF",
"Y+	c #D5D5FF",
"Z+	c #AFAFFF",
"`+	c #8585FF",
" @	c #6666FF",
".@	c #7373FF",
"+@	c #CBCBFF",
"@@	c #A2A2FF",
"#@	c #7C7CFF",
"$@	c #6363FF",
"%@	c #5F5FFF",
"&@	c #9494FF",
"*@	c #DCDCFF",
"=@	c #E2E2FF",
"-@	c #A3A3FF",
";@	c #7B7BFF",
">@	c #6161FF",
",@	c #EFEFFF",
"'@	c #8686FF",
")@	c #7676FF",
"!@	c #5E5EFF",
"~@	c #BFBFFF",
"{@	c #E5E5FF",
"]@	c #DDDDFF",
"^@	c #C2C2FF",
"/@	c #B0B0FF",
"(@	c #D7D7FF",
"_@	c #7A7AFF",
":@	c #B9B9FF",
"<@	c #8787FF",
"[@	c #E6E6FF",
"}@	c #5C5CFF",
"|@	c #7070FF",
"1@	c #E9E9FF",
"2@	c #D4D4FF",
"3@	c #DBDBFF",
"4@	c #BBBBFF",
"5@	c #8A8AFF",
"6@	c #7474FF",
"7@	c #6565FF",
"8@	c #8989FF",
"9@	c #B7B7FF",
"0@	c #C0C0FF",
"a@	c #ABABFF",
"b@	c #BDBDFF",
"c@	c #F3F3FF",
"d@	c #E4E4FF",
"e@	c #EBEBFF",
"f@	c #8C8CFF",
"g@	c #F6F6FF",
"h@	c #C8C8FF",
"i@	c #9A9AFF",
"j@	c #7272FF",
"k@	c #8282FF",
"l@	c #DADAFF",
"m@	c #D1D1FF",
"n@	c #7D7DFF",
"                                                                                                    ",
"                                                                                                    ",
"                                                                  . + @                             ",
"                                                              . + # $ % & * * = -                   ",
"                                                            . ; > , ' ) ! ~ ~ ) { = -               ",
"                                                            ] $ ^ ) / ( _ : < : [ ) * -             ",
"                                                            } | 1 2 3 4 5 < < 6 7 8 9 * -           ",
"                                                          - 0 1 a b c 6 d < < 7 e f g h ^ > +       ",
"                                                          = i j k l m 7 n < < o p q r s ) , # .     ",
"                                                        - { t u v w w o x < 6 y z w w A / B > .     ",
"                                                        = ) : C w w w w D n D E w w w w ( F G .     ",
"                                                        * ! H I w w w w J K L M w w w w N O P       ",
"                                                        * ~ Q R 6 w w 7 S M o o T w w d U ! V       ",
"                                                      - * ~ Q W d X x Y Z ` `  ...6 d +.< ~ *       ",
"                                                      @.#.$.%.&.*.=.d ..-.w w ;.T x +.< < ~ *       ",
"                                                    >.,.'.).!.~.{.].+.M ^.w w /.E x +.< : ) =       ",
"                                                    >.(._.:.<.[.}.].|.1.2.w w 3.E x +.< [ { -       ",
"                                                      . 4.5.6.7.8.9.0.a.b.c.d.e.S n < : ) =         ",
"                                                      f.g.h.i.j.k.l.m.n.o.p.q.r.s.t.u.~ * -         ",
"                                                      v.w.x.y.z.A.B.C.D.E.F.G.H.I.J.K.* -           ",
"                                                      L.M.N.O.P.Q.R.S.T.U.V.W.X.Y.Z.`.-             ",
"                                                       +.+++@+#+$+%+&+*+=+~ ~ -+;+>+;               ",
"                                                      ,+'+)+!+~+{+]+^+/+(+* * = - ;                 ",
"                                                    _+:+<+[+}+|+|+1+2+3+4+- @ +                     ",
"                             +L.v.            :+5+6+f.7+<+8+9+0+a+b+[+c+d+                          ",
"                        d+e+f+f+g+h+i+i+i+i+j+k+7+v.v.l+m+8+n+o+p+q+++r+s+                          ",
"                    d+j+i+t+u+v+w+++x+x+x+x+y+i+w.7+z+k+A+8+q+0+|+B+w+g+C+                          ",
"                  d+i+t+D+E+x+F+G+H+~+~+~+~+I+J+K+L+ +M+N+x+}+0+O+P+Q+f+z+                          ",
"                  j+t+D+R+S+T+G+H+~+~+~+~+~+U+V+W+X+L+Y+Z+`+ @O+o+.@E++@s+6+                        ",
"                  i+t+@@V+x+#@n+G+$@%@O+~+H+P+&@m+*@=@+@-@;@>@O+>@#@R+f+,@                          ",
"                d+t+y+[+'@T+#@#@I+I+)@$@~+!@P+++~@{@]@^@V+.@!@0+!+'@/@(@v.                          ",
"                j+y+_@U+n+9+#@S+/@:@D+<@G+n+)@w+m+[@{@i+&@P+}@o+|@&@<+1@f.                          ",
"                i+x+~+o+H+G+I+/@2@k+3@4@x+`+5@R+r+1@[@i+x+G+~+H+6@y+M.L.                            ",
"                i+x+~+~+~+7@8@9@3@s+s+3@0@a@J+4@e+ +l+i+x+G+~+>@T+t+w.v.                            ",
"                i+x+~+~+~+9+8+b@k+:+5+c@{@f+h+e+[@L.{@~@8@7@|+b+[+<+1@f.                            ",
"                i+x+~+~+0+9+8+b@d@:+_+f.v.e@L+d+c@c@]@t+T+>@H+6@y+M.L.                              ",
"                i+x+~+~+p+b+f@:@X+g@_+      g@z+L.[@h@i@j@o+7@'@9@X+v.                              ",
"                i+x+~+~+a+$@k@Z+l@c@_+      v. +X++@a@k@7@o+j@E+h+ +f.                              ",
"                i+x+G+~+~+H+P+y+m@g@_+        Y+A+-@'@}+o+7@'@9@X+v.                                ",
"                i+x+>@~+~+|+%@T+R+m+i+i+i+i+i+t+&@n@}+%@>@F+y+g+ +f.                                ",
"                  ~+H+~+~+~+~+G+_@x+x+x+x+x+x+_@G+~+O+p+j@V+.+l+                                    ",
"                  ~+G+~+~+~+~+~+~+~+~+~+~+~+~+~+~+~+~+~+~+                                          ",
"                    _@~+~+~+~+~+~+~+~+~+~+~+~+~+~+G+~+~+                                            ",
"                    t+x+_@G+~+~+~+~+~+~+~+~+~+G+_@y+                                                ",
"                      i+t+y+x+x+_@G+~+~+~+~+G+x+t+                                                  ",
"                        d+j+i+i+t+y+x+x+x+x+y+i+d+                                                  ",
"                                d+j+i+i+i+i+j+d+                                                    ",
"                                                                                                    ",
"                                                                                                    ",
"                                                                                                    "};
