/* XPM */
static char * D:\My Games\Snake\Snake\yes_rest_button_xpm[] = {
"82 33 673 2",
"  	c None",
". 	c #00FFFF",
"+ 	c #75D4C2",
"@ 	c #70CBBB",
"# 	c #6BC4B4",
"$ 	c #6BC3B4",
"% 	c #6CC4B3",
"& 	c #6CC4B4",
"* 	c #6CC3B4",
"= 	c #6BC4B3",
"- 	c #6BC3B3",
"; 	c #6CC3B3",
"> 	c #6CC3B2",
", 	c #66BBAC",
"' 	c #60AE9E",
") 	c #5FAC9D",
"! 	c #7AD6C0",
"~ 	c #77D0BC",
"{ 	c #79D1BC",
"] 	c #76CFBA",
"^ 	c #6FC1AE",
"/ 	c #6BB9A8",
"( 	c #69B9A6",
"_ 	c #69B8A7",
": 	c #69B8A6",
"< 	c #6AB8A6",
"[ 	c #6AB9A6",
"} 	c #69B9A7",
"| 	c #6AB9A7",
"1 	c #6AB8A7",
"2 	c #6AB9A5",
"3 	c #66B3A1",
"4 	c #63AC9B",
"5 	c #64AF9D",
"6 	c #68B5A3",
"7 	c #63AB9A",
"8 	c #5DA593",
"9 	c #82DDC3",
"0 	c #80D8BF",
"a 	c #7CD1B7",
"b 	c #74C4AD",
"c 	c #6FBBA5",
"d 	c #6BB49F",
"e 	c #65AA96",
"f 	c #62A792",
"g 	c #61A590",
"h 	c #61A591",
"i 	c #61A690",
"j 	c #62A590",
"k 	c #62A591",
"l 	c #61A691",
"m 	c #62A691",
"n 	c #66AC98",
"o 	c #68B09B",
"p 	c #65AB97",
"q 	c #5C9C89",
"r 	c #55907F",
"s 	c #88E1C1",
"t 	c #84D8B9",
"u 	c #78C6AA",
"v 	c #70B79D",
"w 	c #69AC94",
"x 	c #66A78F",
"y 	c #63A48D",
"z 	c #63A28C",
"A 	c #62A28B",
"B 	c #63A28B",
"C 	c #63A18B",
"D 	c #62A28C",
"E 	c #63A18C",
"F 	c #62A18B",
"G 	c #63A18A",
"H 	c #63A48E",
"I 	c #65A58E",
"J 	c #5E9C86",
"K 	c #558B78",
"L 	c #538775",
"M 	c #8FE1BE",
"N 	c #88D8B6",
"O 	c #7AC1A3",
"P 	c #6EAD92",
"Q 	c #68A68C",
"R 	c #66A289",
"S 	c #67A289",
"T 	c #66A388",
"U 	c #23382F",
"V 	c #000000",
"W 	c #090F0C",
"X 	c #5E967E",
"Y 	c #66A389",
"Z 	c #67A389",
"` 	c #5D947C",
" .	c #080D0B",
"..	c #51816D",
"+.	c #2B453A",
"@.	c #141F1A",
"#.	c #070B09",
"$.	c #010202",
"%.	c #030504",
"&.	c #0A100D",
"*.	c #16241E",
"=.	c #284036",
"-.	c #3E6253",
";.	c #598D76",
">.	c #67A188",
",.	c #68A48A",
"'.	c #65A087",
").	c #5E947D",
"!.	c #558772",
"~.	c #93E2BA",
"{.	c #8DD9B4",
"].	c #7EC29F",
"^.	c #70AD8F",
"/.	c #6BA488",
"(.	c #6AA387",
"_.	c #6AA486",
":.	c #6AA487",
"<.	c #6AA386",
"[.	c #63987E",
"}.	c #0B110E",
"|.	c #22342B",
"1.	c #6BA486",
"2.	c #6BA387",
"3.	c #1F3028",
"4.	c #62987D",
"5.	c #659C80",
"6.	c #24382F",
"7.	c #6AA286",
"8.	c #68A084",
"9.	c #60947A",
"0.	c #58886F",
"a.	c #58866E",
"b.	c #97E3B7",
"c.	c #91DAB1",
"d.	c #81C29D",
"e.	c #74AE8C",
"f.	c #6FA586",
"g.	c #6EA484",
"h.	c #6DA484",
"i.	c #6EA584",
"j.	c #507760",
"k.	c #456652",
"l.	c #6EA485",
"m.	c #6EA585",
"n.	c #42634F",
"o.	c #507861",
"p.	c #6BA282",
"q.	c #1B2820",
"r.	c #6EA384",
"s.	c #6CA181",
"t.	c #639477",
"u.	c #58836A",
"v.	c #557F66",
"w.	c #9BE1B2",
"x.	c #98DCAC",
"y.	c #88C39B",
"z.	c #79AE8A",
"A.	c #73A682",
"B.	c #71A582",
"C.	c #72A582",
"D.	c #72A581",
"E.	c #72A482",
"F.	c #304637",
"G.	c #060907",
"H.	c #649071",
"I.	c #71A482",
"J.	c #628E70",
"K.	c #040705",
"L.	c #314737",
"M.	c #71A581",
"N.	c #43614C",
"O.	c #1C2920",
"P.	c #4C6E57",
"Q.	c #649273",
"R.	c #6FA17E",
"S.	c #689777",
"T.	c #5A8266",
"U.	c #45644E",
"V.	c #2D4133",
"W.	c #0E1510",
"X.	c #72A381",
"Y.	c #6EA07E",
"Z.	c #5E8A6C",
"`.	c #4D6F57",
" +	c #50755C",
".+	c #9DDFAC",
"++	c #8FCA9D",
"@+	c #7DB188",
"#+	c #76A780",
"$+	c #75A680",
"%+	c #75A580",
"&+	c #76A57F",
"*+	c #75A67F",
"=+	c #75A57F",
"-+	c #709F7B",
";+	c #121A14",
">+	c #1C291F",
",+	c #74A47E",
"'+	c #73A37D",
")+	c #1A241C",
"!+	c #719F7B",
"~+	c #76A67F",
"{+	c #76A680",
"]+	c #1A251C",
"^+	c #2D4031",
"/+	c #76A47F",
"(+	c #73A27D",
"_+	c #699572",
":+	c #517258",
"<+	c #47654E",
"[+	c #A2DEA7",
"}+	c #9CD7A2",
"|+	c #89BC8D",
"1+	c #7BAA7F",
"2+	c #79A67D",
"3+	c #79A77C",
"4+	c #608464",
"5+	c #020302",
"6+	c #415B44",
"7+	c #3E5540",
"8+	c #618564",
"9+	c #79A77D",
"0+	c #78A67D",
"a+	c #78A77D",
"b+	c #070907",
"c+	c #6B936E",
"d+	c #78A67C",
"e+	c #78A57D",
"f+	c #729F77",
"g+	c #5B7D5F",
"h+	c #435C45",
"i+	c #4E6B51",
"j+	c #A3DAA0",
"k+	c #97CC95",
"l+	c #85B182",
"m+	c #7EA87C",
"n+	c #7DA77B",
"o+	c #7CA77B",
"p+	c #7DA77A",
"q+	c #7CA67A",
"r+	c #7CA77A",
"s+	c #40553F",
"t+	c #030403",
"u+	c #668964",
"v+	c #648561",
"w+	c #40563F",
"x+	c #7CA67B",
"y+	c #759D73",
"z+	c #7DA67B",
"A+	c #7DA67A",
"B+	c #7AA377",
"C+	c #658864",
"D+	c #435A42",
"E+	c #445B43",
"F+	c #A8DC9D",
"G+	c #95C38C",
"H+	c #84AD7C",
"I+	c #80A878",
"J+	c #80A778",
"K+	c #81A878",
"L+	c #81A778",
"M+	c #81A779",
"N+	c #7EA676",
"O+	c #1C241A",
"P+	c #171E15",
"Q+	c #789E70",
"R+	c #141A13",
"S+	c #1C251B",
"T+	c #7EA577",
"U+	c #80A879",
"V+	c #80A779",
"W+	c #121710",
"X+	c #4D6549",
"Y+	c #7FA477",
"Z+	c #73956B",
"`+	c #526B4D",
" @	c #465C42",
".@	c #AFDF9D",
"+@	c #AAD998",
"@@	c #94BC83",
"#@	c #86AB78",
"$@	c #84A875",
"%@	c #84A976",
"&@	c #84A876",
"*@	c #719064",
"=@	c #050705",
"-@	c #10140E",
";@	c #719164",
">@	c #83A876",
",@	c #84A975",
"'@	c #3A4A33",
")@	c #030302",
"!@	c #3C4C35",
"~@	c #6C8960",
"{@	c #84A776",
"]@	c #7EA06F",
"^@	c #627D58",
"/@	c #475B40",
"(@	c #6B885F",
"_@	c #ABD692",
":@	c #A4CC8C",
"<@	c #8FB37A",
"[@	c #89AA75",
"}@	c #88A973",
"|@	c #87A973",
"1@	c #87A974",
"2@	c #516445",
"3@	c #516545",
"4@	c #88AA74",
"5@	c #88A974",
"6@	c #7C9A69",
"7@	c #0E110C",
"8@	c #0A0C08",
"9@	c #252F20",
"0@	c #415037",
"a@	c #607751",
"b@	c #80A16D",
"c@	c #88A873",
"d@	c #84A470",
"e@	c #69835A",
"f@	c #405036",
"g@	c #5E7551",
"h@	c #ACD08B",
"i@	c #A1C483",
"j@	c #8FAE74",
"k@	c #8CAA71",
"l@	c #8BAA71",
"m@	c #8BA971",
"n@	c #8CA971",
"o@	c #283221",
"p@	c #293221",
"q@	c #8BAA70",
"r@	c #789361",
"s@	c #1E2518",
"t@	c #040503",
"u@	c #34402A",
"v@	c #7A9563",
"w@	c #8CAA70",
"x@	c #88A56E",
"y@	c #6C8458",
"z@	c #3C4931",
"A@	c #586C48",
"B@	c #AFD088",
"C@	c #A5C480",
"D@	c #92AE72",
"E@	c #8FAB6F",
"F@	c #8FAB6E",
"G@	c #8FAA6F",
"H@	c #8FAA6E",
"I@	c #829B64",
"J@	c #8EAA6F",
"K@	c #677A50",
"L@	c #323C27",
"M@	c #0C0E09",
"N@	c #060805",
"O@	c #66794F",
"P@	c #8BA66B",
"Q@	c #6F8456",
"R@	c #3C482E",
"S@	c #596A45",
"T@	c #B3D084",
"U@	c #A9C57C",
"V@	c #97AF6F",
"W@	c #92AA6C",
"X@	c #93AC6C",
"Y@	c #93AB6C",
"Z@	c #92AB6C",
"`@	c #93AB6D",
" #	c #7E925D",
".#	c #607147",
"+#	c #414C30",
"@#	c #191D12",
"##	c #060704",
"$#	c #7E925C",
"%#	c #8EA569",
"&#	c #718453",
"*#	c #3D472D",
"=#	c #5A6A43",
"-#	c #B1CA7D",
";#	c #A8C077",
">#	c #9BB06D",
",#	c #97AC69",
"'#	c #96AC6A",
")#	c #96AC69",
"!#	c #96AB6A",
"~#	c #97AC6A",
"{#	c #97AB6A",
"]#	c #6F7F4E",
"^#	c #0C0E08",
"/#	c #3B4429",
"(#	c #8CA163",
"_#	c #687649",
":#	c #384027",
"<#	c #57643E",
"[#	c #A7BC71",
"}#	c #A5BA6F",
"|#	c #9FB26B",
"1#	c #9AAD68",
"2#	c #9AAD67",
"3#	c #9BAD67",
"4#	c #9AAC68",
"5#	c #9AAC67",
"6#	c #9BAC67",
"7#	c #9BAD68",
"8#	c #697546",
"9#	c #13160D",
"0#	c #98AA66",
"a#	c #859459",
"b#	c #535D38",
"c#	c #2D321E",
"d#	c #525C37",
"e#	c #ABBB6D",
"f#	c #ACBE6E",
"g#	c #A7B96C",
"h#	c #9EAE66",
"i#	c #9DAD65",
"j#	c #9EAD65",
"k#	c #9DAE65",
"l#	c #9EAE65",
"m#	c #9DAE64",
"n#	c #9EAE64",
"o#	c #9EAD64",
"p#	c #94A45F",
"q#	c #040402",
"r#	c #9DAD64",
"s#	c #9AA862",
"t#	c #7D8950",
"u#	c #434A2B",
"v#	c #2E331D",
"w#	c #5C663B",
"x#	c #B6C46E",
"y#	c #B0BE6B",
"z#	c #A4B164",
"A#	c #A2AF62",
"B#	c #A2AE63",
"C#	c #A1AE62",
"D#	c #A1AE63",
"E#	c #A2AE62",
"F#	c #A1AF63",
"G#	c #A1AF62",
"H#	c #8D9855",
"I#	c #0A0A06",
"J#	c #A2AF63",
"K#	c #A1AD62",
"L#	c #96A35C",
"M#	c #707945",
"N#	c #3A3F24",
"O#	c #B0BB67",
"P#	c #AFBA66",
"Q#	c #A9B362",
"R#	c #A5AF60",
"S#	c #A4AD60",
"T#	c #A6AF60",
"U#	c #A5AE60",
"V#	c #A5AE61",
"W#	c #A5AF61",
"X#	c #A3AD5F",
"Y#	c #3A3E22",
"Z#	c #232514",
"`#	c #A2AB5E",
" $	c #8C9552",
".$	c #575C33",
"+$	c #2F321B",
"@$	c #454A28",
"#$	c #ADB460",
"$$	c #AEB561",
"%$	c #AEB461",
"&$	c #AAB05E",
"*$	c #A9AF5D",
"=$	c #A8B05D",
"-$	c #A9B05E",
";$	c #A9AF5E",
">$	c #A8B05E",
",$	c #A9B05D",
"'$	c #A8AF5E",
")$	c #A8AF5D",
"!$	c #14150B",
"~$	c #3E4123",
"{$	c #616436",
"]$	c #7E8346",
"^$	c #929850",
"/$	c #A1A658",
"($	c #A7AC5B",
"_$	c #A4AB5B",
":$	c #939950",
"<$	c #6C703C",
"[$	c #242514",
"}$	c #5E6234",
"|$	c #A6AD5C",
"1$	c #9DA357",
"2$	c #777C42",
"3$	c #3F4123",
"4$	c #30311A",
"5$	c #A6AA58",
"6$	c #A6AB58",
"7$	c #AAAD5B",
"8$	c #ABAF5B",
"9$	c #ACB05B",
"0$	c #ADB05C",
"a$	c #ADB05B",
"b$	c #ACB15B",
"c$	c #ACB05C",
"d$	c #ADB15C",
"e$	c #ADB15B",
"f$	c #222312",
"g$	c #A8AC59",
"h$	c #ACB15C",
"i$	c #AAAF5A",
"j$	c #A2A455",
"k$	c #848747",
"l$	c #51532B",
"m$	c #2F3019",
"n$	c #404222",
"o$	c #9D9D4E",
"p$	c #97984C",
"q$	c #A0A050",
"r$	c #ACAD56",
"s$	c #AFB058",
"t$	c #B0B059",
"u$	c #B0B159",
"v$	c #B1B159",
"w$	c #B0B158",
"x$	c #B1B059",
"y$	c #39391C",
"z$	c #A5A453",
"A$	c #AEAF58",
"B$	c #A4A553",
"C$	c #888945",
"D$	c #56562B",
"E$	c #313118",
"F$	c #333319",
"G$	c #959449",
"H$	c #959347",
"I$	c #A3A14E",
"J$	c #AFAD55",
"K$	c #B3B056",
"L$	c #B3B156",
"M$	c #B4B156",
"N$	c #B4B256",
"O$	c #B4B257",
"P$	c #B4B157",
"Q$	c #B3B257",
"R$	c #B3B256",
"S$	c #9E9B4B",
"T$	c #737137",
"U$	c #4E4D25",
"V$	c #2F2E16",
"W$	c #18180B",
"X$	c #090904",
"Y$	c #020201",
"Z$	c #050502",
"`$	c #100F07",
" %	c #2B2A14",
".%	c #515027",
"+%	c #908E45",
"@%	c #B2AF55",
"#%	c #A8A651",
"$%	c #8B8943",
"%%	c #58572A",
"&%	c #323118",
"*%	c #313017",
"=%	c #989446",
"-%	c #A6A14C",
";%	c #B2AD52",
">%	c #B5B053",
",%	c #B7B154",
"'%	c #B7B254",
")%	c #B7B354",
"!%	c #B8B254",
"~%	c #B8B354",
"{%	c #B8B255",
"]%	c #B7B255",
"^%	c #B3AE52",
"/%	c #ABA54E",
"(%	c #8D8841",
"_%	c #5A5729",
":%	c #333117",
"<%	c #323017",
"[%	c #595629",
"}%	c #9B9444",
"|%	c #968F42",
"1%	c #9D9545",
"2%	c #A7A049",
"3%	c #B3AA4D",
"4%	c #B6AE4F",
"5%	c #B9B051",
"6%	c #BAB251",
"7%	c #BAB252",
"8%	c #BBB352",
"9%	c #BCB352",
"0%	c #BBB351",
"a%	c #BCB351",
"b%	c #BBB452",
"c%	c #B9B150",
"d%	c #B6AE50",
"e%	c #AFA74D",
"f%	c #9F9845",
"g%	c #847E3A",
"h%	c #595426",
"i%	c #343117",
"j%	c #333016",
"k%	c #5A5627",
"l%	c #948A3D",
"m%	c #807935",
"n%	c #847C37",
"o%	c #91893C",
"p%	c #9C9341",
"q%	c #AAA046",
"r%	c #B6AB4B",
"s%	c #BAAF4D",
"t%	c #BAAF4E",
"u%	c #B9AF4D",
"v%	c #B9AE4D",
"w%	c #BAAE4E",
"x%	c #B9AE4E",
"y%	c #BAAE4D",
"z%	c #B2A74A",
"A%	c #A59A44",
"B%	c #978E3F",
"C%	c #857D37",
"D%	c #655F2A",
"E%	c #47421D",
"F%	c #343115",
"G%	c #373417",
"H%	c #5D5827",
"I%	c #8A8137",
"J%	c #766E2F",
"K%	c #6C642B",
"L%	c #6A622A",
"M%	c #7C7431",
"N%	c #92873A",
"O%	c #988E3C",
"P%	c #988C3C",
"Q%	c #978C3C",
"R%	c #978B3C",
"S%	c #968B3C",
"T%	c #968C3C",
"U%	c #968B3B",
"V%	c #978C3B",
"W%	c #978B3B",
"X%	c #968C3B",
"Y%	c #867C35",
"Z%	c #686029",
"`%	c #524C20",
" &	c #46411C",
".&	c #393516",
"+&	c #373316",
"@&	c #48431C",
"#&	c #807530",
"$&	c #6C6229",
"%&	c #6C6228",
"&&	c #6B6128",
"*&	c #5D5523",
"=&	c #544E20",
"-&	c #534C20",
";&	c #544D20",
">&	c #534D1F",
",&	c #534D20",
"'&	c #534C1F",
")&	c #544C20",
"!&	c #544C1F",
"~&	c #534B1F",
"{&	c #49431B",
"]&	c #3A3516",
"^&	c #47411B",
"/&	c #A4943B",
"(&	c #8C7E32",
"_&	c #80732E",
":&	c #7E712D",
"<&	c #7E712C",
"[&	c #7C702C",
"}&	c #766A2A",
"|&	c #6C6126",
". . . . . . . . . . . . . . . . . . . . . . . . . . . . . . . . . . . . . . . . . . . . . . . . . . . . . . . . . . . . . . . . . . . . . . . . . . . . . . . . . . ",
". . . . . . . . . . . . . + @ # $ # % # & & $ % & $ & * % $ = & & # # & % = $ - # * & = & * # = = * & & & = = % = * # & * $ ; % ; ; > , ' ) . . . . . . . . . . . . ",
". . . . . . . . . . ! ~ { ] ^ / ( _ : ( < : ( : : ( ( _ : : ( [ < : : : [ _ : } : _ < : < ( [ [ ( : [ [ : : [ | < : : ( < ( 1 ( : ( 2 3 4 5 6 7 8 . . . . . . . . . ",
". . . . . . . . 9 0 a b c d e f g g h h i g j h h k h h g h h h h h h h h h g h j h h h h h h h k g k g h h h l l g h g g h h m h h h h m n o p l q r . . . . . . . ",
". . . . . . . s t u v w x y z A B z z z B C C z z B A z B B D z z z z B A z E A A B C z A z A C B D z A D B C B B B D D A F D B B B B G A H I x x J K L . . . . . . ",
". . . . . . M N O P Q R S T U V V W X Y Y Z R T Y Y Z Z `  .V V U Z S V V V V V V V V V V V V V V Z R Y Z Y Z R ..+.@.#.$.%.&.*.=.-.;.S R Y >.Y ,.'.).!.!.. . . . . ",
". . . . . ~.{.].^./.(._.:.<.[.}.V V |.<.(.<.<.1.(.2.(.1.3.V V }.4.(.:.V V V V V V V V V V V V V V (.<.(.<.(.5.6.V V V V V V V V V V V (.1.<.(.(.7.7.8.9.0.a.. . . . ",
". . . . b.c.d.e.f.g.h.g.g.i.g.j.V V V k.g.l.m.g.g.h.g.n.V V V o.g.h.g.V V V V V V V V V V V V V V g.g.h.h.p.q.V V V V V V V V V V V V g.g.h.g.g.l.r.r.s.t.u.v.. . . ",
". . . w.x.y.z.A.B.C.B.D.E.B.D.B.F.V V G.H.B.E.I.E.B.J.K.V V L.E.E.E.C.V V V D.M.C.M.M.C.D.C.I.I.C.C.B.E.B.N.V V V O.P.Q.R.R.S.T.U.V.W.B.M.I.B.I.C.E.I.X.Y.Z.`. +. . ",
". . . .+++@+#+$+%+&+*+=+&+%+*+*+-+;+V V >+,+*+*+$+'+)+V V ;+!+*+*+*+*+V V V %+$+~+%+{+%+&+*+=+%+=+=+*+%+=+]+V V ^+,+=+$+=+$+*+=+~+%+%+$+*+*+=+*+&+*+=+/+(+_+:+<+. . ",
". . [+}+|+1+2+3+2+2+2+2+2+2+2+2+2+4+5+V V 6+2+2+2+7+V V 5+8+3+2+2+9+2+V V V 2+2+2+0+2+a+2+2+2+2+9+0+2+2+2+b+V V c+2+2+2+2+2+2+2+2+0+9+2+0+0+2+9+2+d+2+2+e+f+g+h+i+. ",
". . j+k+l+m+n+o+n+p+q+n+n+n+p+n+r+o+s+V V t+u+p+v+5+V V w+p+o+o+r+r+r+V V V r+x+o+n+r+n+o+n+r+n+n+n+o+n+n+5+V V y+p+r+o+p+o+o+p+z+n+o+p+o+r+r+p+o+o+o+z+A+B+C+D+E+. ",
". . F+G+H+I+J+I+I+K+I+L+I+J+L+M+J+I+N+O+V V P+Q+R+V V S+T+I+U+L+I+I+L+V V V I+I+J+U+I+J+J+U+U+J+I+I+I+I+V+W+V V X+J+I+I+K+J+K+K+I+I+I+L+I+L+I+I+J+K+J+J+I+Y+Z+`+ @. ",
". .@+@@@#@$@$@%@&@$@&@$@&@%@&@&@%@%@$@*@=@V V -@V V =@;@>@&@%@%@&@%@&@V V V &@%@&@%@&@&@&@,@&@$@&@&@%@&@&@'@V V )@!@~@&@$@&@&@&@&@&@$@%@&@%@&@$@&@&@%@%@&@{@]@^@/@(@",
". _@:@<@[@}@|@|@|@}@}@|@|@|@|@|@}@1@|@|@2@V V V V V 3@}@}@4@1@}@5@5@}@V V V V V V V V V V V V V }@5@5@|@}@6@7@V V V V 8@9@0@a@b@}@|@}@|@}@|@5@}@5@5@}@1@}@c@d@e@f@g@",
". h@i@j@k@l@m@k@m@m@l@l@n@l@l@l@l@m@n@k@m@o@V V V p@l@n@q@n@n@k@l@l@k@V V V V V V V V V V V V V n@k@l@m@k@l@r@s@V V V V V V V t@u@v@m@k@l@w@l@l@k@l@l@k@n@l@x@y@z@A@",
". B@C@D@E@E@F@E@G@H@H@G@E@F@F@H@G@F@H@H@G@I@V V V I@E@H@F@E@H@G@F@F@H@V V V V V V V V V V V V V E@F@E@J@E@G@H@G@K@L@M@V V V V V V N@O@H@F@G@G@H@E@H@H@G@H@G@P@Q@R@S@",
". T@U@V@W@X@Y@X@X@Y@Y@Z@Y@Y@Y@Y@`@Z@Y@Y@Z@Y@V V V Y@Y@Y@`@Y@Z@Y@Y@Y@`@V V V Y@Y@Y@Z@Y@Y@Z@X@Y@Y@Y@Z@Y@Y@Y@Y@Y@Y@Z@Z@Y@ #.#+#@#V V V ##$#Z@Y@Y@X@Y@X@Y@`@Y@Z@%#&#*#=#",
". -#;#>#,#'#'#)#)#'#)#'#'#'#'#'#!#'#'#~#~#~#V V V ,#'#,#'#!#~#~#)#~#{#V V V )#'#'#~#,#'#,#'#'#~#,#,#'#'#'#)#)#'#,#)#)#~#~#{#'#]#^#V V /#'#'#)#~#!#'#{#,#'#!#(#_#:#<#",
". [#}#|#1#2#3#2#2#4#1#1#5#2#2#5#1#2#5#2#2#2#V V V 2#2#5#6#4#2#2#4#2#5#V V V 2#2#2#5#4#2#2#2#5#2#5#2#7#2#1#2#2#2#4#1#2#5#5#6#1#2#8#V V 9#2#2#2#5#2#2#2#2#1#0#a#b#c#d#",
". e#f#g#h#i#j#i#k#j#j#k#i#i#l#j#m#n#l#j#j#l#V V V j#k#l#j#j#l#i#i#l#j#V V V j#j#j#j#j#o#j#l#l#j#i#k#j#l#j#i#l#l#j#j#l#j#j#o#j#k#p#V V q#j#j#i#j#j#r#k#j#i#s#t#u#v#w#",
". . x#y#z#A#B#C#B#D#B#C#E#C#C#D#D#C#E#D#B#C#V V V B#E#B#F#C#B#D#D#C#G#V V V D#B#D#C#C#B#B#E#C#D#B#B#G#B#C#C#C#C#B#D#D#B#C#D#D#E#H#V V I#D#B#C#J#E#F#D#B#K#L#M#N#N#. ",
". . O#P#Q#R#S#R#R#R#T#U#U#R#R#R#U#R#R#T#R#T#V V V T#R#R#R#R#V#R#R#R#R#V V V R#R#R#U#R#R#R#W#R#R#R#R#R#R#U#R#R#T#R#R#R#U#R#U#R#X#Y#V V Z#R#R#R#R#U#R#R#R#`# $.$+$@$. ",
". . #$$$%$&$*$=$-$*$-$*$*$-$*$;$;$>$;$,$*$*$V V V *$,$;$-$-$-$-$;$'$*$V V V '$-$-$;$*$;$-$*$)$,$;$-$*$*$,$!$~${$]$^$/$($_$:$<$[$V V V }$-$,$*$-$-$;$*$|$1$2$3$4$. . ",
". . . 5$6$7$8$9$0$9$a$0$b$9$9$a$9$b$9$9$9$c$V V V d$d$9$9$9$b$c$b$0$9$V V V V V V V V V V V V V V 9$9$c$e$V V V V V V V V V V V V V f$g$h$9$e$h$9$9$i$j$k$l$m$n$. . ",
". . . o$p$q$r$s$t$u$v$v$v$u$u$u$v$u$v$w$v$u$V V V u$u$x$u$u$t$u$u$u$u$V V V V V V V V V V V V V V u$u$u$u$V V V V V V V V V V V V y$z$u$w$u$u$x$u$A$B$C$D$E$F$. . . ",
". . . . G$H$I$J$K$L$M$N$N$M$O$N$O$M$N$N$O$N$V V V O$P$Q$N$L$R$O$N$M$N$V V V V V V V V V V V V V V N$M$M$P$S$T$U$V$W$X$Y$Z$`$ %.%+%N$N$M$P$O$M$N$@%#%$%%%&%*%%%. . . ",
". . . . . =%=%-%;%>%,%'%)%!%'%!%~%)%{%)%~%!%~%)%~%!%'%~%'%!%'%)%'%~%~%'%!%'%)%'%!%)%'%!%)%~%)%~%~%~%~%'%'%~%!%'%)%!%)%!%)%~%!%)%)%'%)%~%!%{%]%^%/%(%_%:%<%[%. . . . ",
". . . . . . }%|%1%2%3%4%5%6%7%8%9%0%0%9%0%a%b%0%0%0%8%0%8%8%0%a%8%a%a%9%0%8%0%0%8%8%a%8%0%8%8%b%8%8%0%9%a%0%b%b%8%0%8%9%b%0%8%8%0%8%a%8%c%d%e%f%g%h%i%j%k%. . . . . ",
". . . . . . . l%m%n%o%p%q%r%s%t%s%s%s%u%s%s%s%t%t%v%t%s%t%w%s%s%s%s%w%s%s%w%s%s%x%s%s%s%y%s%u%s%s%s%s%t%t%s%s%s%s%s%u%s%s%s%s%s%s%w%x%z%A%B%C%D%E%F%G%H%. . . . . . ",
". . . . . . . . I%J%K%L%M%N%O%P%Q%R%Q%R%S%T%Q%S%R%Q%Q%R%Q%U%S%V%T%T%Q%R%R%Q%R%T%Q%V%U%R%W%R%R%X%T%T%Q%R%U%S%T%T%T%T%S%T%R%T%V%R%Q%R%U%Y%Z%`% &.&+&@&. . . . . . . . ",
". . . . . . . . . . #&$&%&&&*&=&-&-&;&>&,&'&;&'&,&)&-&>&!&)&'&'&-&'&'&-&,&'&-&,&)&>&;&)&'&!&'&!&'&!&'&'&-&'&'&-&>&'&!&'&!&-&;&!&>&-&~&{&]&]&^&'&. . . . . . . . . . ",
". . . . . . . . . . . . . /&(&_&:&:&:&:&:&:&:&<&:&:&:&:&:&:&:&:&:&:&:&:&:&:&:&:&:&:&:&:&:&:&:&:&:&:&:&:&:&:&:&:&:&:&:&:&:&:&:&:&:&:&[&}&|&}&. . . . . . . . . . . . "};
