/* XPM */
static char * D:\My Games\Snake\Snake\yes_pressed_button_xpm[] = {
"82 33 658 2",
"  	c None",
". 	c #00FFFF",
"+ 	c #91FFFF",
"@ 	c #8CFFFF",
"# 	c #86FFFF",
"$ 	c #87FFFF",
"% 	c #81FFF4",
"& 	c #76F9E3",
"* 	c #75F7E1",
"= 	c #99FFFF",
"- 	c #93FFFF",
"; 	c #94FFFF",
"> 	c #92FFFF",
", 	c #8AFFF6",
"' 	c #84FFEB",
") 	c #84FFEA",
"! 	c #82FFEA",
"~ 	c #82FFEB",
"{ 	c #82FFE9",
"] 	c #7FFFE3",
"^ 	c #7AF6DA",
"/ 	c #7BFADE",
"( 	c #7FFFE5",
"_ 	c #7AF5DA",
": 	c #74EBD0",
"< 	c #A2FFFF",
"[ 	c #9DFFFF",
"} 	c #98FFFF",
"| 	c #8FFFF1",
"1 	c #89FFE6",
"2 	c #84FFDD",
"3 	c #7DF1D1",
"4 	c #79EBCB",
"5 	c #78EACB",
"6 	c #79E9CB",
"7 	c #79EACA",
"8 	c #78E9CB",
"9 	c #79EACB",
"0 	c #78EACA",
"a 	c #7AEBCC",
"b 	c #7EF3D3",
"c 	c #80FAD8",
"d 	c #7CF2D2",
"e 	c #72DCC0",
"f 	c #6ACDB1",
"g 	c #A9FFFF",
"h 	c #A3FFFF",
"i 	c #96FFEB",
"j 	c #8AFFD9",
"k 	c #82F2CC",
"l 	c #7EEAC6",
"m 	c #7CE7C2",
"n 	c #7AE4C0",
"o 	c #7AE4C1",
"p 	c #79E4C0",
"q 	c #7AE5C0",
"r 	c #79E5C0",
"s 	c #7AE4BF",
"t 	c #7CE8C2",
"u 	c #7CE8C3",
"v 	c #7EEAC7",
"w 	c #75DBB9",
"x 	c #69C3A4",
"y 	c #66BEA0",
"z 	c #AFFFFF",
"A 	c #A9FFF7",
"B 	c #96FFDF",
"C 	c #87F2C7",
"D 	c #81E7BD",
"E 	c #7EE4BA",
"F 	c #7EE3BA",
"G 	c #7EE4BB",
"H 	c #2B4E40",
"I 	c #000000",
"J 	c #0B1511",
"K 	c #75D1AB",
"L 	c #7EE3BB",
"M 	c #7FE3BA",
"N 	c #72CEAA",
"O 	c #0A120F",
"P 	c #7FE3BB",
"Q 	c #65B594",
"R 	c #35604F",
"S 	c #182C24",
"T 	c #08100D",
"U 	c #010302",
"V 	c #040806",
"W 	c #0C1712",
"X 	c #1C3229",
"Y 	c #315A49",
"Z 	c #4C8971",
"` 	c #6DC4A2",
" .	c #7EE3B9",
"..	c #7FE5BC",
"+.	c #7CE0B7",
"@.	c #73D0AA",
"#.	c #68BD9A",
"$.	c #B6FFFB",
"%.	c #AEFFEF",
"&.	c #9AFFD5",
"*.	c #8BF0BF",
"=.	c #83E3B5",
"-.	c #82E3B5",
";.	c #82E2B4",
">.	c #7AD3A8",
",.	c #0D1713",
"'.	c #2A483A",
").	c #83E3B4",
"!.	c #83E2B5",
"~.	c #274335",
"{.	c #0D1813",
"].	c #79D3A8",
"^.	c #82E2B5",
"/.	c #7CD7AC",
"(.	c #2D4F3F",
"_.	c #83E2B4",
":.	c #82E1B3",
"<.	c #7FDDB1",
"[.	c #77CEA3",
"}.	c #6CBC96",
"|.	c #6BBA94",
"1.	c #BAFFF3",
"2.	c #B4FFE9",
"3.	c #A0FFCF",
"4.	c #8EEFB9",
"5.	c #87E3B0",
"6.	c #86E2AF",
"7.	c #87E2AF",
"8.	c #87E2AE",
"9.	c #62A47F",
"0.	c #548D6D",
"a.	c #87E1AF",
"b.	c #518769",
"c.	c #63A580",
"d.	c #86E1AF",
"e.	c #85DFAC",
"f.	c #21372B",
"g.	c #87E1AE",
"h.	c #84DDAB",
"i.	c #7ACB9E",
"j.	c #6CB58C",
"k.	c #68AE87",
"l.	c #BFFFE7",
"m.	c #B8FFE1",
"n.	c #A4FFC9",
"o.	c #93EEB3",
"p.	c #8BE3AA",
"q.	c #8AE1A9",
"r.	c #8BE2AA",
"s.	c #8BE1AA",
"t.	c #8BE1A9",
"u.	c #8AE1AA",
"v.	c #3A6048",
"w.	c #070C09",
"x.	c #79C595",
"y.	c #8BE2A9",
"z.	c #77C291",
"A.	c #050907",
"B.	c #3B6149",
"C.	c #8AE2A9",
"D.	c #528564",
"E.	c #22382A",
"F.	c #5D9771",
"G.	c #7BC897",
"H.	c #87DBA6",
"I.	c #87DBA5",
"J.	c #7FCE9B",
"K.	c #6DB285",
"L.	c #548968",
"M.	c #375942",
"N.	c #111D15",
"O.	c #89E0A8",
"P.	c #8AE0A8",
"Q.	c #87DAA4",
"R.	c #74BC8D",
"S.	c #5E9873",
"T.	c #63A078",
"U.	c #C0FFDC",
"V.	c #AFFFC9",
"W.	c #99F0AE",
"X.	c #90E2A5",
"Y.	c #8FE0A3",
"Z.	c #8FE1A4",
"`.	c #8FE0A4",
" +	c #8FE1A3",
".+	c #89D99E",
"++	c #16241A",
"@+	c #233728",
"#+	c #8DDFA2",
"$+	c #8DDDA1",
"%+	c #1F3224",
"&+	c #8AD99D",
"*+	c #37573F",
"=+	c #8EDFA3",
"-+	c #8EDFA2",
";+	c #80C993",
">+	c #639B71",
",+	c #578964",
"'+	c #C4FFD2",
")+	c #BFFFCD",
"!+	c #A6FDB3",
"~+	c #96E4A1",
"{+	c #93DF9E",
"]+	c #93E09D",
"^+	c #93E09E",
"/+	c #75B37E",
"(+	c #020403",
"_+	c #507A56",
":+	c #94DF9E",
"<+	c #4C7350",
"[+	c #76B37F",
"}+	c #94E09E",
"|+	c #080D09",
"1+	c #82C58B",
"2+	c #93DF9D",
"3+	c #92DF9D",
"4+	c #8CD596",
"5+	c #6FA877",
"6+	c #527C58",
"7+	c #5F9066",
"8+	c #C5FFC6",
"9+	c #B9FFB9",
"0+	c #A1EDA2",
"a+	c #98E199",
"b+	c #98DF98",
"c+	c #97DF98",
"d+	c #97DF99",
"e+	c #98E098",
"f+	c #4E724E",
"g+	c #040604",
"h+	c #7DB77D",
"i+	c #78B279",
"j+	c #020402",
"k+	c #4E734E",
"l+	c #030503",
"m+	c #8ED18F",
"n+	c #97E098",
"o+	c #98DF99",
"p+	c #96DE98",
"q+	c #94D994",
"r+	c #7BB67C",
"s+	c #517852",
"t+	c #527953",
"u+	c #CBFFBF",
"v+	c #B4FFAA",
"w+	c #A1E596",
"x+	c #9CDE93",
"y+	c #9CDE92",
"z+	c #9CDF93",
"A+	c #9BDF92",
"B+	c #9CDF92",
"C+	c #9BDE93",
"D+	c #9ADC91",
"E+	c #223020",
"F+	c #1B281A",
"G+	c #92D18A",
"H+	c #182317",
"I+	c #223120",
"J+	c #99DC90",
"K+	c #9BDE92",
"L+	c #9BDF93",
"M+	c #161F14",
"N+	c #5D8658",
"O+	c #9ADB90",
"P+	c #8BC683",
"Q+	c #648E5D",
"R+	c #557A50",
"S+	c #D4FFBB",
"T+	c #CEFFB5",
"U+	c #B2F79E",
"V+	c #A2E18F",
"W+	c #A0DD8D",
"X+	c #9FDE8D",
"Y+	c #A0DD8C",
"Z+	c #A0DE8D",
"`+	c #89BE78",
" @	c #060906",
".@	c #131A11",
"+@	c #8ABF79",
"@@	c #9FDE8C",
"#@	c #9FDD8D",
"$@	c #A0DE8C",
"%@	c #9FDD8C",
"&@	c #46623E",
"*@	c #486440",
"=@	c #83B573",
"-@	c #97D385",
";@	c #77A469",
">@	c #56774C",
",@	c #82B472",
"'@	c #D0FFAB",
")@	c #C6FFA3",
"!@	c #ADE98F",
"~@	c #A5DE88",
"{@	c #A4DD86",
"]@	c #A4DD87",
"^@	c #A4DC87",
"/@	c #A5DD87",
"(@	c #618350",
"_@	c #628451",
":@	c #95C97B",
"<@	c #11170E",
"[@	c #0C100A",
"}@	c #2D3D25",
"|@	c #4E6940",
"1@	c #749C5F",
"2@	c #9CD180",
"3@	c #A3DC86",
"4@	c #A0D783",
"5@	c #80AC69",
"6@	c #4D6840",
"7@	c #72995E",
"8@	c #CFFF9F",
"9@	c #C2FE97",
"0@	c #AEE385",
"a@	c #A8DC81",
"b@	c #A9DC81",
"c@	c #A9DD81",
"d@	c #A8DD81",
"e@	c #A8DC82",
"f@	c #314126",
"g@	c #324126",
"h@	c #92BE6F",
"i@	c #24301C",
"j@	c #050704",
"k@	c #3F5230",
"l@	c #94C171",
"m@	c #A8DD82",
"n@	c #A9DC82",
"o@	c #A4D67E",
"p@	c #83AB64",
"q@	c #495F38",
"r@	c #6A8B52",
"s@	c #D3FF97",
"t@	c #C6FD8F",
"u@	c #B1E17F",
"v@	c #ADDC7B",
"w@	c #ACDC7B",
"x@	c #ACDB7C",
"y@	c #ACDC7C",
"z@	c #ACDB7B",
"A@	c #ADDB7B",
"B@	c #9CC870",
"C@	c #9CC770",
"D@	c #ADDB7C",
"E@	c #7C9E58",
"F@	c #3D4D2B",
"G@	c #0E120A",
"H@	c #080A05",
"I@	c #7B9D58",
"J@	c #A7D678",
"K@	c #86AA60",
"L@	c #485D34",
"M@	c #6C884D",
"N@	c #D8FF90",
"O@	c #CBFA87",
"P@	c #B5DF79",
"Q@	c #AFDA76",
"R@	c #B1DB76",
"S@	c #B0DB76",
"T@	c #B0DB75",
"U@	c #B0DA76",
"V@	c #B1DA76",
"W@	c #B1DB75",
"X@	c #98BC65",
"Y@	c #74914D",
"Z@	c #4F6134",
"`@	c #1E2514",
" #	c #070905",
".#	c #ABD472",
"+#	c #88A85B",
"@#	c #495B31",
"##	c #6D8749",
"$#	c #D4FF84",
"%#	c #CAF47D",
"&#	c #B9DF73",
"*#	c #B5DA71",
"=#	c #B5DA70",
"-#	c #B5DB70",
";#	c #B4DA70",
">#	c #86A153",
",#	c #0E1109",
"'#	c #47562C",
")#	c #B4D970",
"!#	c #A8CC69",
"~#	c #7D964D",
"{#	c #43512A",
"]#	c #697F41",
"^#	c #C9EB73",
"/#	c #C7E973",
"(#	c #BEDF6D",
"_#	c #B9DA6A",
":#	c #BAD96A",
"<#	c #B9D96A",
"[#	c #BADA6B",
"}#	c #BAD96B",
"|#	c #BADA6A",
"1#	c #B9D96B",
"2#	c #B9DA6B",
"3#	c #7E9448",
"4#	c #171C0D",
"5#	c #B6D56A",
"6#	c #9FBB5B",
"7#	c #64753A",
"8#	c #36401F",
"9#	c #637438",
"0#	c #CCEA6D",
"a#	c #CEEB6E",
"b#	c #C9E66A",
"c#	c #BFDA65",
"d#	c #BCD765",
"e#	c #BED964",
"f#	c #BED865",
"g#	c #BED965",
"h#	c #BDD865",
"i#	c #BDD965",
"j#	c #BDD864",
"k#	c #BDD964",
"l#	c #BED864",
"m#	c #B2CD5E",
"n#	c #050502",
"o#	c #B8D362",
"p#	c #96AA4F",
"q#	c #515D2B",
"r#	c #383F1D",
"s#	c #707F3B",
"t#	c #DAF36B",
"u#	c #D2EB68",
"v#	c #C5DC61",
"w#	c #C1D85F",
"x#	c #C2D75F",
"y#	c #C2D85F",
"z#	c #C1D75F",
"A#	c #C2D85E",
"B#	c #A8BC53",
"C#	c #0C0D05",
"D#	c #C0D75F",
"E#	c #B5CA59",
"F#	c #869642",
"G#	c #464E22",
"H#	c #D3E660",
"I#	c #D2E45F",
"J#	c #CBDD5B",
"K#	c #C6D759",
"L#	c #C5D75A",
"M#	c #C6D75A",
"N#	c #C5D759",
"O#	c #C6D859",
"P#	c #C5D859",
"Q#	c #C6D85A",
"R#	c #C3D559",
"S#	c #464D1F",
"T#	c #2A2E13",
"U#	c #C2D258",
"V#	c #A8B84C",
"W#	c #68712F",
"X#	c #393E19",
"Y#	c #535B26",
"Z#	c #CFDB56",
"`#	c #D0DD56",
" $	c #D0DC57",
".$	c #CBD754",
"+$	c #CAD654",
"@$	c #CAD653",
"#$	c #CAD753",
"$$	c #CAD754",
"%$	c #CBD653",
"&$	c #181A0A",
"*$	c #4B4F1F",
"=$	c #747B30",
"-$	c #97A03E",
";$	c #AFB948",
">$	c #C0CB4F",
",$	c #C7D452",
"'$	c #C4D050",
")$	c #AFBA48",
"!$	c #818935",
"~$	c #2B2E12",
"{$	c #71782F",
"]$	c #C8D452",
"^$	c #BCC84E",
"/$	c #8E983B",
"($	c #4B501F",
"_$	c #393D17",
":$	c #C7CF4B",
"<$	c #C7CF4C",
"[$	c #CBD34D",
"}$	c #CDD54E",
"|$	c #CDD44E",
"1$	c #CED64D",
"2$	c #CED54E",
"3$	c #CED64E",
"4$	c #CFD64E",
"5$	c #CFD54E",
"6$	c #292A0F",
"7$	c #C9D14B",
"8$	c #CFD54D",
"9$	c #CCD44C",
"0$	c #C0C849",
"a$	c #9FA33C",
"b$	c #626524",
"c$	c #383A15",
"d$	c #4D4F1D",
"e$	c #BCBD40",
"f$	c #B5B63E",
"g$	c #BEC141",
"h$	c #CED047",
"i$	c #D1D448",
"j$	c #D2D548",
"k$	c #D3D548",
"l$	c #D2D648",
"m$	c #D2D549",
"n$	c #444517",
"o$	c #C4C843",
"p$	c #D3D549",
"q$	c #D1D348",
"r$	c #C5C744",
"s$	c #A2A438",
"t$	c #666823",
"u$	c #3A3B14",
"v$	c #3C3D15",
"w$	c #B2B238",
"x$	c #B1B037",
"y$	c #C3C13D",
"z$	c #D1CF41",
"A$	c #D6D342",
"B$	c #D5D342",
"C$	c #D7D443",
"D$	c #D7D442",
"E$	c #D6D442",
"F$	c #D7D542",
"G$	c #D6D443",
"H$	c #D6D542",
"I$	c #D6D543",
"J$	c #BCBA39",
"K$	c #88882A",
"L$	c #5D5C1D",
"M$	c #383711",
"N$	c #1D1D09",
"O$	c #0A0A03",
"P$	c #020200",
"Q$	c #060602",
"R$	c #131305",
"S$	c #333210",
"T$	c #61601E",
"U$	c #ABA934",
"V$	c #D4D342",
"W$	c #C9C73E",
"X$	c #A5A434",
"Y$	c #686720",
"Z$	c #3B3B12",
"`$	c #3A3912",
" %	c #686821",
".%	c #B4B033",
"+%	c #B5B032",
"@%	c #C5BE36",
"#%	c #D4CD3B",
"$%	c #D7D03C",
"%%	c #DAD33C",
"&%	c #DBD43D",
"*%	c #DBD43C",
"=%	c #DBD33D",
"-%	c #DAD43C",
";%	c #DBD33C",
">%	c #DAD33D",
",%	c #DAD23C",
"'%	c #D6CE3B",
")%	c #CBC439",
"!%	c #A8A22E",
"~%	c #6B671D",
"{%	c #3D3B11",
"]%	c #3B3910",
"^%	c #6A661D",
"/%	c #B9AF2E",
"(%	c #B2A92C",
"_%	c #BAB02E",
":%	c #C8BD32",
"<%	c #D4C935",
"[%	c #D9CD36",
"}%	c #DBD036",
"|%	c #DED237",
"1%	c #DFD337",
"2%	c #DFD236",
"3%	c #DFD336",
"4%	c #E0D337",
"5%	c #DFD237",
"6%	c #E0D237",
"7%	c #D0C534",
"8%	c #BEB32F",
"9%	c #9D9426",
"0%	c #69631A",
"a%	c #3E3A0F",
"b%	c #3C390E",
"c%	c #6C661B",
"d%	c #AFA226",
"e%	c #998E21",
"f%	c #9C9122",
"g%	c #ADA025",
"h%	c #B9AC28",
"i%	c #CABB2C",
"j%	c #D9C930",
"k%	c #DECC30",
"l%	c #DDCC30",
"m%	c #DECC31",
"n%	c #DDCC31",
"o%	c #DDCD30",
"p%	c #DECD30",
"q%	c #DCCB30",
"r%	c #D4C52E",
"s%	c #C4B62A",
"t%	c #B3A627",
"u%	c #9E9222",
"v%	c #786F1A",
"w%	c #544E12",
"x%	c #3D390D",
"y%	c #423C0E",
"z%	c #6F6618",
"A%	c #A5951F",
"B%	c #8E801A",
"C%	c #807518",
"D%	c #7E7218",
"E%	c #94851C",
"F%	c #AE9D21",
"G%	c #B5A422",
"H%	c #B4A322",
"I%	c #B3A122",
"J%	c #B2A222",
"K%	c #B2A122",
"L%	c #B3A121",
"M%	c #B3A221",
"N%	c #B2A221",
"O%	c #B2A121",
"P%	c #B3A222",
"Q%	c #B2A021",
"R%	c #9F901E",
"S%	c #7B7017",
"T%	c #625812",
"U%	c #534C0F",
"V%	c #443E0C",
"W%	c #413B0C",
"X%	c #564E10",
"Y%	c #978719",
"Z%	c #807215",
"`%	c #7F7014",
" &	c #6F6212",
".&	c #645910",
"+&	c #635810",
"@&	c #625610",
"#&	c #584D0E",
"$&	c #453D0B",
"%&	c #554B0D",
"&&	c #C3A91A",
"*&	c #A79016",
"=&	c #988414",
"-&	c #958114",
";&	c #948014",
">&	c #8C7913",
",&	c #806F11",
". . . . . . . . . . . . . . . . . . . . . . . . . . . . . . . . . . . . . . . . . . . . . . . . . . . . . . . . . . . . . . . . . . . . . . . . . . . . . . . . . . ",
". . . . . . . . . . . . . + @ # # # $ # # # # # # # # $ # # $ # $ # # # # # # # # # # # $ # # # # # # # # $ # # $ $ # $ $ # # # $ # # % & * . . . . . . . . . . . . ",
". . . . . . . . . . = - ; > , ' ) ! ) ! ) ~ ~ ' ' ~ ' ~ ' ~ ) ) ! ~ ~ ' ' ~ ' ~ ) ! ~ ' ' ' ~ ) ' ~ ~ ) ~ ' ~ ) ) ~ ) ' ) ~ ' ' ~ ) { ] ^ / ( _ : . . . . . . . . . ",
". . . . . . . . < [ } | 1 2 3 4 5 6 5 5 7 5 7 6 8 9 0 8 7 9 9 5 5 9 9 5 0 9 5 5 7 5 0 9 0 9 5 6 9 5 5 9 9 9 0 9 9 6 9 5 9 5 9 9 5 9 5 9 a b c d 9 e f . . . . . . . ",
". . . . . . . g h i j k l m n n n o p n n n n n n n n n n n q n n n n n n n n p n n n n n n n n n n o n o o r n n p p q n n n q o n n s q t u l v w x y . . . . . . ",
". . . . . . z A B C D E F G H I I J K L F E F F M F E F N O I I H P G I I I I I I I I I I I I I I G G F L F E F Q R S T U V W X Y Z ` E L E  .G ..+.@.#.#.. . . . . ",
". . . . . $.%.&.*.=.-.=.;.=.>.,.I I '.).-.-.-.-.!.!.).-.~.I I {.].=.).I I I I I I I I I I I I I I -.-.^.-.-./.(.I I I I I I I I I I I ).^.-.-.!._.:.<.[.}.|.. . . . ",
". . . . 1.2.3.4.5.6.7.7.7.8.7.9.I I I 0.7.6.6.7.7.7.a.b.I I I c.7.7.6.I I I I I I I I I I I I I I 7.d.7.6.e.f.I I I I I I I I I I I I a.6.6.7.a.6.g.g.h.i.j.k.. . . ",
". . . l.m.n.o.p.q.r.s.s.t.t.t.u.v.I I w.x.t.t.t.t.y.z.A.I I B.q.s.t.q.I I I s.t.q.y.u.C.t.q.s.s.y.s.u.C.q.D.I I I E.F.G.H.I.J.K.L.M.N.s.s.t.t.t.t.t.O.P.Q.R.S.T.. . ",
". . . U.V.W.X.Y.Z.`. +Z.Z. +Z.Y..+++I I @+#+Y.Z.Y.$+%+I I ++&+Z.Z.Z.Y.I I I  +`.`.`.Z.Z.`.Y.Z.`.Z. +Y. +Y.%+I I *+=+Z.`. +Y. +Y.Z.Y.Y.`.Z.Y.`. +Y.Z. +-+$+;+>+,+. . ",
". . '+)+!+~+{+]+{+{+]+^+{+^+^+^+^+/+(+I I _+:+^+]+<+I I (+[+^+^+^+^+}+I I I ]+^+^+]+{+^+:+^+^+^+{+{+^+}+]+|+I I 1+^+}+^+2+^+^+^+}+]+^+^+}+:+^+]+}+^+2+}+3+4+5+6+7+. ",
". . 8+9+0+a+b+b+c+d+c+b+b+b+c+c+e+b+f+I I g+h+b+i+j+I I k+c+b+b+c+c+c+I I I b+b+c+b+b+c+c+b+b+c+c+b+c+c+b+l+I I m+c+c+b+b+n+c+c+c+b+b+c+c+c+b+b+o+b+c+b+p+q+r+s+t+. ",
". . u+v+w+x+y+x+z+z+A+B+x+C+y+x+y+C+D+E+I I F+G+H+I I I+J+z+y+C+z+A+z+I I I B+K+A+B+B+y+z+z+x+y+B+y+x+K+L+M+I I N+C+B+x+A+K+y+K+K+y+z+B+K+x+B+y+A+y+x+L+B+O+P+Q+R+. ",
". S+T+U+V+W+X+Y+Z+Z+Z+W+Z+X+W+Y+Z+Z+X+`+ @I I .@I I  @+@Y+Z+@@W+Z+W+Z+I I I X+Z+#@Z+Z+Z+X+#@W+$@%@Z+Z+Y+Z+&@I I l+*@=@Z+W+Z+$@Z+Z+X+Z+W+$@$@Y+$@$@$@$@$@Z+%@-@;@>@,@",
". '@)@!@~@{@]@^@]@]@/@]@]@]@]@]@]@]@]@]@(@I I I I I _@]@]@]@]@]@]@]@]@I I I I I I I I I I I I I ]@/@]@]@]@:@<@I I I I [@}@|@1@2@]@]@]@]@]@]@]@]@]@]@]@]@]@3@4@5@6@7@",
". 8@9@0@a@b@b@a@b@a@b@c@a@b@d@d@e@a@c@a@a@f@I I I g@d@d@a@a@a@b@d@a@d@I I I I I I I I I I I I I a@d@a@e@b@a@h@i@I I I I I I I j@k@l@a@a@a@a@m@c@a@d@b@n@c@a@o@p@q@r@",
". s@t@u@v@w@x@v@w@y@z@z@w@y@z@v@w@A@z@z@w@B@I I I C@y@D@D@y@w@w@D@v@x@I I I I I I I I I I I I I y@v@D@v@D@z@x@x@E@F@G@I I I I I I H@I@v@v@D@x@w@y@D@x@y@A@D@J@K@L@M@",
". N@O@P@Q@R@R@S@T@S@R@U@T@R@R@V@V@S@R@R@R@R@I I I R@V@R@V@R@W@S@S@V@R@I I I R@W@T@R@W@S@W@W@R@W@R@W@R@W@R@V@S@W@R@R@T@X@Y@Z@`@I I I  #X@V@R@U@W@S@S@U@V@S@W@.#+#@###",
". $#%#&#*#=#-#=#=#=#=#=#=#-#-#;#=#=#=#*#=#=#I I I =#=#=#=#=#=#=#-#=#=#I I I =#=#=#=#-#=#=#=#=#=#=#=#=#=#=#=#=#=#=#=#=#-#=#=#=#>#,#I I '#=#=#=#=#=#=#=#=#=#)#!#~#{#]#",
". ^#/#(#_#:#<#[#:#<#}#<#<#|#1#<#1#2#1#2#<#2#I I I 1#1#[#<#<#<#[#|#<#1#I I I <#<#_#|#<#<#<#2#1#1#_#<#<#[#1#_#<#1#:#1#1#<#1#<#<#}#3#I I 4#<#<#1#1#1#1#_#<#2#5#6#7#8#9#",
". 0#a#b#c#d#e#f#g#h#f#i#h#g#e#j#g#j#e#i#g#i#I I I k#k#i#j#g#l#f#i#f#g#I I I g#i#f#j#g#i#h#l#h#g#g#i#l#l#f#i#g#k#i#i#g#g#h#h#g#h#m#I I n#g#e#g#i#l#g#f#i#f#o#p#q#r#s#",
". . t#u#v#w#w#x#y#w#w#y#w#y#w#y#x#w#y#x#w#w#I I I z#w#w#A#w#y#w#w#w#z#I I I y#y#y#x#y#y#w#y#w#z#w#w#w#w#y#x#w#w#w#y#y#y#y#w#w#y#B#I I C#y#w#y#y#w#y#y#y#D#E#F#G#G#. ",
". . H#I#J#K#L#K#K#K#K#M#K#M#K#K#K#K#N#K#K#K#I I I N#K#K#K#K#O#K#N#M#K#I I I K#M#K#P#L#K#N#K#Q#K#N#K#M#M#Q#K#O#K#K#K#K#K#N#K#K#R#S#I I T#L#O#K#K#L#K#O#K#U#V#W#X#Y#. ",
". . Z#`# $.$+$@$@$#$+$@$+$+$#$@$+$$$#$+$@$#$I I I +$+$@$#$$$#$%$#$@$@$I I I #$@$+$@$#$+$#$+$$$+$#$$$#$@$#$&$*$=$-$;$>$,$'$)$!$~$I I I {$@$$$#$#$+$+$#$]$^$/$($_$. . ",
". . . :$<$[$}$|$1$2$3$3$1$3$4$3$3$3$3$3$3$1$I I I 3$2$1$3$3$3$2$5$3$1$I I I I I I I I I I I I I I 2$3$3$3$I I I I I I I I I I I I I 6$7$5$2$3$8$4$3$9$0$a$b$c$d$. . ",
". . . e$f$g$h$i$i$j$k$l$k$j$j$j$k$j$j$k$k$j$I I I k$j$k$j$j$k$m$k$k$k$I I I I I I I I I I I I I I k$j$k$k$I I I I I I I I I I I I n$o$k$k$j$p$j$j$q$r$s$t$u$v$. . . ",
". . . . w$x$y$z$A$B$C$D$E$C$D$C$F$D$D$F$D$G$I I I F$D$D$H$D$I$F$E$F$D$I I I I I I I I I I I I I I D$D$D$D$J$K$L$M$N$O$P$Q$R$S$T$U$F$D$G$E$C$C$H$V$W$X$Y$Z$`$ %. . . ",
". . . . . .%+%@%#%$%%%%%&%&%*%=%&%&%=%-%=%;%&%;%&%=%&%*%=%*%&%%%*%>%%%&%=%&%*%;%&%&%*%*%*%;%&%&%*%>%=%=%*%=%=%*%&%;%&%=%*%%%-%*%>%=%;%*%&%=%,%'%)%!%~%{%]%^%. . . . ",
". . . . . . /%(%_%:%<%[%}%|%|%1%1%1%1%1%2%1%2%1%1%3%1%4%5%1%4%3%1%1%3%3%1%4%1%1%1%3%1%1%1%1%1%3%4%1%2%1%1%1%5%3%1%6%1%1%1%2%1%1%5%1%1%|%}%[%7%8%9%0%a%b%c%. . . . . ",
". . . . . . . d%e%f%g%h%i%j%k%l%l%k%l%k%m%l%k%n%o%k%k%n%k%k%n%l%l%n%l%k%p%n%l%m%l%o%o%k%l%k%k%n%l%l%n%l%k%k%l%n%k%p%l%n%l%l%l%k%n%k%q%r%s%t%u%v%w%x%y%z%. . . . . . ",
". . . . . . . . A%B%C%D%E%F%G%H%I%J%K%L%K%L%M%M%N%O%K%I%J%J%I%L%K%J%J%P%P%P%O%K%N%O%K%K%J%O%M%L%P%M%J%I%L%L%P%N%M%M%L%K%L%P%M%J%M%O%Q%R%S%T%U%V%W%X%. . . . . . . . ",
". . . . . . . . . . Y%Z%Z%`% &.&+&+&+&+&+&+&+&+&+&+&+&+&+&+&+&+&+&+&+&+&+&+&+&+&+&+&+&+&+&+&+&+&+&+&+&+&+&+&+&+&+&+&+&+&+&+&+&+&+&+&@&#&$&$&%&+&. . . . . . . . . . ",
". . . . . . . . . . . . . &&*&=&-&-&-&-&-&-&-&-&-&-&-&-&-&-&-&-&-&-&-&-&-&-&-&-&-&-&-&-&-&-&-&-&-&-&-&-&-&-&-&-&-&-&-&-&-&-&-&-&-&-&;&>&,&>&. . . . . . . . . . . . "};
